<?xml version="1.0" encoding="UTF-8"?><svg xmlns="http://www.w3.org/2000/svg" viewBox="0 0 782 1009.27"><defs><style>.cls-1,.cls-2,.cls-3,.cls-4,.cls-5{fill-rule:evenodd;}.cls-1,.cls-6{fill:#4cdd56;}.cls-2,.cls-7,.cls-8{fill:#fff;}.cls-9{fill:#777;}.cls-3{fill:#ff76db;}.cls-4{fill:#fe6855;}.cls-10,.cls-8{isolation:isolate;}.cls-11{mix-blend-mode:multiply;}.cls-12{fill:#199bfe;}.cls-13,.cls-5{fill:#06243a;}.cls-8{opacity:.5;}</style></defs><g class="cls-10"><g id="Layer_2"><g id="ui"><g id="Ink"><path id="inner-stroke" class="cls-5" d="M684.88,897.1c-18.57-171.42-20.83-342.6-47.68-513.29-5.63-24.86-32.62-19.21-51.75-18.25-30.67,1.53-61.34,3.08-92.02,4.6-130.58,7.55-261.96,9.92-391.83,25.67-3.35.89-10.5,1.84-8.12,6.89,10.13,10.5,30.27,4.14,44.08,6.26,121.57-2.45,242.91-10.19,364.35-15.93,34.76-1.76,69.71-4.16,104.46-5.15,1.25,13.33,9,55.48,4.98,65.23-56.26,2.76-115.79-4.07-169.86,2.96-64.76-2.27-131.14,7.43-196.81,8.77-98.98-1.64-101.4,43.02-108.11-25.13.16-17.4-27.71-24.57-23.75-3.21,8.47,33.25,4.81,68.87,7.6,103.03.3,85.8,6.69,171.45,5.04,257.24.35,26.44,3.1,52.81,4.84,79.19,3.6,9.05-4.14,43.18,11.26,39.04,85.93,13.44,173.67,8.02,260.44,8.96,60.59,0,121.2-1.21,181.77.06,27.77-.27,55.44,1.23,83.01,4.22,16.95.94,19.62-18.22,18.1-31.16ZM142.55,493.65c-.12-4.73,1.17-6.18,5.61-6.94,85.77-7.86,172.04-6.26,257.86-13.81,63.05-4.22,126.13-3.45,189.24-4.91,10,.25,22.39-8,20.39,8.25,4.02,39.45,6.37,79.05,11.84,118.39,3.61,75.79,35.16,85.41-39.57,86.04-128.89,1.2-257.37,9.15-385.94,17.59-4.85.22-6.26-1.86-4.11-6.29,24.36-48.3,50.53-113.37,109.65-124.39,43.89,10.83,67.67,59.84,105.52,82.55,29.94,16.36,42.83-28.09,61.86-42.98,15.75-16.46,30.94,13.18,43.99,20.77,10.74,9.09,21.76,17.85,32.56,26.89,20.17,15.38,33.43,4.79,10.75-12.2-20.52-15.8-57.28-65.6-83.54-58.91-85.14,37.79-11.6,88.57-122.61-13.71-39.06-39.79-84.25-17.92-115.82,18.43-26.14,29.18-43.33,66.04-54.95,103.82-3.42,13.16-21.39,10.03-31.69,14.41-13.66,2.76-5.19-76.37-8.57-90.07,1.94-41.06-1.29-81.91-2.47-122.93ZM614.99,909.23c-153.62-7.89-316.24-4.88-465.58-4.84-2.39-49.4-6.2-98.96-2.7-148.39,3.28-10.25-5.66-33.11,8.65-35.1,26.89-3.3,54.83-2.61,81.02-8.24,5.82-3.08,15.51,3.43,20.24-3.28.01,0,.01-.01.01-.01,1.43.05,2.83.21,4.16.75-1.28.37-2.39.19-3.48-.35,13.38,7.3,31.01-.31,44.46-3.23,5.03.56,11.66,2.34,16.27.12,88.45-7.48,180.07-16.09,270.3-18.95,11.49-.46,22.98-1,34.47-1.55,18.33-.87,16.09-2.81,19.72,16.33,6.13,37.4,8.74,75.42,13.83,112.97,4.39,95.99,35.64,95.28-41.37,93.77Z"/><path id="ui-1" class="cls-4" d="M656.36,815.46c-5.09-37.55-7.7-75.57-13.83-112.97-3.63-19.14-1.39-17.2-19.72-16.33-11.49.55-22.98,1.09-34.47,1.55-90.23,2.86-181.85,11.47-270.3,18.95-4.61,2.22-11.24.44-16.27-.12-13.45,2.92-31.08,10.53-44.46,3.23,1.09.54,2.2.72,3.48.35-1.33-.54-2.73-.7-4.16-.75,0,0,0,.01-.01.01-4.73,6.71-14.42.2-20.24,3.28-26.19,5.63-54.13,4.94-81.02,8.24-14.31,1.99-5.37,24.85-8.65,35.1-3.5,49.43.31,98.99,2.7,148.39,149.34-.04,311.96-3.05,465.58,4.84,77.01,1.51,45.76,2.22,41.37-93.77ZM267.51,862.4c-6.37-10.23,49.28-10.82,57.34-11.05v-.08c79.37,1.64-38.68,18.54-57.34,11.13ZM385.33,826.87c-44.23-.12-88.32,5.43-132.55,4.23-17.04-14.91,93.31-14.76,104.13-16.83v.69c10.02,1.79,33.16-5.28,35.09,7.66-.33,2.6-2.19,4.04-6.67,4.25ZM402.55,770.29c-6.63,1.69-11.27-5.64-13.98-10.66-10.94-6.35-26.81,33.25-44.44,14.52-5.18-3.07-9.02-18.08-16.12-12.06-39.66,62.32-52.34-16.07-67.68,2.69-8.23,7.08-20.76,42.61-31.33,22.29,3.64-18.96,14.45-39.26,33.17-46.69,19.53-9.94,24.53,35.62,41.67,24.49,44.73-62.2,34.67.62,55.19-7.45,9.54-8.07,28.2-33.53,39.45-16.28.75,9.2,8.72,20.87,4.07,29.15ZM611.39,839.45c-1.95,5.7-8.56,4.51-13.35,4.62-24-.96-47.58,3.23-71.3,5.7-70.97,15.43-64.45-21.9-66.65-78.02-.72-22.88,2.52-40.49,28.42-41.84,25.85-1.31,54.93-8.48,79.45,1.85,4.06,4.02,8.55,4.65,13.99,4.37,22.42-6.23,35.87,89.1,29.44,103.32Z"/><path id="ui-1-2" class="cls-3" d="M627.49,594.63c-5.47-39.34-7.82-78.94-11.84-118.39,2-16.25-10.39-8-20.39-8.25-63.11,1.46-126.19.69-189.24,4.91-85.82,7.55-172.09,5.95-257.86,13.81-4.44.76-5.73,2.21-5.61,6.94,1.18,41.02,4.41,81.87,2.47,122.93,3.38,13.7-5.09,92.83,8.57,90.07,10.3-4.38,28.27-1.25,31.69-14.41,11.62-37.78,28.81-74.64,54.95-103.82,31.57-36.35,76.76-58.22,115.82-18.43,111.01,102.28,37.47,51.5,122.61,13.71,26.26-6.69,63.02,43.11,83.54,58.91,22.68,16.99,9.42,27.58-10.75,12.2-10.8-9.04-21.82-17.8-32.56-26.89-13.05-7.59-28.24-37.23-43.99-20.77-19.03,14.89-31.92,59.34-61.86,42.98-37.85-22.71-61.63-71.72-105.52-82.55-59.12,11.02-85.29,76.09-109.65,124.39-2.15,4.43-.74,6.51,4.11,6.29,128.57-8.44,257.05-16.39,385.94-17.59,74.73-.63,43.18-10.25,39.57-86.04ZM540.4,577.05c-28.71,2.15-51.56-18.79-47.92-46.46-6.7-46.67,58.09-34,77.19-8.37,19.75,24.64,2.14,58.05-29.27,54.83Z"/><path id="line" class="cls-5" d="M37.26,975.42c19.78,1.75,45.77,3.66,64.45,15.02,11.66,5.52,26.26,22.86,2.68,17.98-29.71-7.82-60.37-8.51-90.43-13.55-34.97-16.18,4.55-20.5,23.31-19.45h0Z"/><path id="line-2" class="cls-5" d="M782,845.69c-20.36,6.1-33.62-37.21-45.36-50.79-4.47-10.89-20.17-24.41-12.62-36.22,3.54-2.13,9.67-5.81,12.82-1.17,19.43,26.75,31.78,57.91,45.16,88.18h0Z"/><path id="line-3" class="cls-5" d="M245.34,317.27c-13.18-3.16-113.59-2.78-100.1-23.8,9.57-11.05,161.75,23.08,100.1,23.8h0Z"/><path id="line-4" class="cls-5" d="M328.06,289.27c11.48,1.21,73.59,7.44,58.63,27.15-13.07,5.84-112.96-20.17-58.63-27.15h0Z"/><path id="x" class="cls-5" d="M541.74,410.17c8.89-6.84,15.92,6.57,24.05-.93,3.18-2.93,7.27-4.35,11.58-3.88,10.39,4.32-11.8,13.49-3.23,19.32,3.48,3.89,11.91,6.47,10.75,12.64-4.93,6.28-13.2-4.45-18.37-6.65-5.88-5.13-10.23,2.89-15.3,5.06-3.3,1.71-12.02,2.4-9.88-3.58,8.27-10.01,13.8-12.66.41-21.98h0Z"/><path id="Fill-6" class="cls-3" d="M204.06,440.62c-1.39-15.24,20.66-17.53,27.35-6.32,9.63,17.71-27.77,26.65-27.35,6.32h0Z"/><path id="Fill-8" class="cls-4" d="M179.52,427.54c16.23.48,2.93,34.03-10.5,22.21-10.92-8.26-2.49-24.78,10.5-22.21h0Z"/><path id="Fill-10" class="cls-1" d="M268,436.83c-.23,7.86-12.18,13.32-17.28,5.99-8.04-15.61,14.53-24.91,17.28-5.99h0Z"/><path id="Fill-12" class="cls-5" d="M569.67,522.22c-19.1-25.63-83.89-38.3-77.19,8.37-3.64,27.67,19.21,48.61,47.92,46.46,31.41,3.22,49.02-30.19,29.27-54.83ZM536.62,556.98c-23.04,3.4-36.69-41.94-12.83-38.47,15.84,5.4,47.2,37.17,12.83,38.47Z"/><path class="cls-1" d="M536.62,556.98c-23.04,3.4-36.69-41.94-12.83-38.47,15.84,5.4,47.2,37.17,12.83,38.47Z"/><path id="Fill-14" class="cls-5" d="M581.95,736.13c-5.44.28-9.93-.35-13.99-4.37-24.52-10.33-53.6-3.16-79.45-1.85-25.9,1.35-29.14,18.96-28.42,41.84,2.2,56.12-4.32,93.45,66.65,78.02,23.72-2.47,47.3-6.66,71.3-5.7,4.79-.11,11.4,1.08,13.35-4.62,6.43-14.22-7.02-109.55-29.44-103.32ZM568.06,830.38c-.01-.22-.03-.44-.05-.66-22.9,2.12-45.78,4.87-68.7,6.61-11.04,1.68-12.52-5.81-13.8-15.34,2.17-15.05-4.93-66.16,6.58-72.54,79.34-8.33,85-29.18,102.89,58.81,11.9,31.48-3.94,21.62-26.92,23.12Z"/><path class="cls-1" d="M594.98,807.26c-17.89-87.99-23.55-67.14-102.89-58.81-11.51,6.38-4.41,57.49-6.58,72.54,1.28,9.53,2.76,17.02,13.8,15.34,22.92-1.74,45.8-4.49,68.7-6.61.02.22.04.44.05.66,22.98-1.5,38.82,8.36,26.92-23.12ZM507.09,770.68c-1.48-10.7,15.05-8.75,16.81-.9,1.69,11.68-18.11,13.26-16.81.9ZM525.12,795.63c12.71,6.86,24.61,7.85,36.07-2.16,5.25-1.4,4.17,4.92,4.79,8.46,1.36,25.97-61.36,4.56-40.86-6.3ZM564.99,777.82c-10.08,4.57-21.28,3.57-20.98-10.13,1.03-23.33,33.92,3.18,20.98,10.13Z"/><path class="cls-5" d="M402.55,770.29c-6.63,1.69-11.27-5.64-13.98-10.66-10.94-6.35-26.81,33.25-44.44,14.52-5.18-3.07-9.02-18.08-16.12-12.06-39.66,62.32-52.34-16.07-67.68,2.69-8.23,7.08-20.76,42.61-31.33,22.29,3.64-18.96,14.45-39.26,33.17-46.69,19.53-9.94,24.53,35.62,41.67,24.49,44.73-62.2,34.67.62,55.19-7.45,9.54-8.07,28.2-33.53,39.45-16.28.75,9.2,8.72,20.87,4.07,29.15Z"/><path class="cls-5" d="M392,822.62c-.33,2.6-2.19,4.04-6.67,4.25-44.23-.12-88.32,5.43-132.55,4.23-17.04-14.91,93.31-14.76,104.13-16.83v.69c10.02,1.79,33.16-5.28,35.09,7.66Z"/><path class="cls-5" d="M267.51,862.4c-6.37-10.23,49.28-10.82,57.34-11.05v-.08c79.37,1.64-38.68,18.54-57.34,11.13Z"/><path class="cls-2" d="M525.12,795.63c12.71,6.86,24.61,7.85,36.07-2.16,5.25-1.4,4.17,4.92,4.79,8.46,1.36,25.97-61.36,4.56-40.86-6.3Z"/><path class="cls-2" d="M564.99,777.82c-10.08,4.57-21.28,3.57-20.98-10.13,1.03-23.33,33.92,3.18,20.98,10.13Z"/><path class="cls-2" d="M507.09,770.68c-1.48-10.7,15.05-8.75,16.81-.9,1.69,11.68-18.11,13.26-16.81.9Z"/><g id="ballon"><g id="Group"><g id="Layer_1-2"><path id="Vector" class="cls-12" d="M619.71,91.92c4.57,52.86-34.56,99.4-87.43,103.99-52.87,4.58-99.4-34.56-103.98-87.43-4.58-52.87,34.56-99.4,87.43-103.99s99.4,34.58,103.98,87.43Z"/><path id="Vector_2" class="cls-13" d="M523.84,200.42c-19.07-.03-37.73-5.5-53.8-15.77-16.07-10.27-28.87-24.91-36.91-42.2-8.04-17.29-10.97-36.52-8.46-55.42,2.51-18.9,10.36-36.7,22.64-51.29,12.75-15.17,29.72-26.22,48.75-31.75,19.03-5.53,39.28-5.29,58.17.69,18.9,5.98,35.6,17.42,47.99,32.89,12.39,15.47,19.92,34.26,21.62,54.01,1.13,13.11-.32,26.31-4.29,38.86-3.97,12.55-10.37,24.19-18.84,34.26-8.47,10.07-18.84,18.38-30.51,24.44-11.68,6.07-24.43,9.77-37.54,10.91-2.96.26-5.9.38-8.81.38ZM524.17,8.28c-2.68,0-5.38.12-8.08.35-18.11,1.57-35.35,8.47-49.54,19.84-14.19,11.37-24.69,26.68-30.17,44.02-5.48,17.33-5.7,35.9-.63,53.36,5.07,17.46,15.2,33.02,29.12,44.72,13.91,11.7,30.99,19.01,49.05,21,18.07,2,36.32-1.41,52.45-9.79,16.13-8.38,29.42-21.35,38.17-37.28,8.76-15.93,12.59-34.1,11.03-52.21h0c-1.98-22.89-12.47-44.21-29.39-59.76-16.92-15.55-39.05-24.19-62.03-24.24h0Z"/><path id="Vector_3" class="cls-13" d="M530.61,100.77c-.16,6.89-9.78,9.23-15.17,9.23s-15-2.35-15.17-9.23c-.08-3.22-5.09-3.23-5.01,0,.22,9.92,11.8,14.24,20.18,14.24s19.96-4.32,20.17-14.24c.08-3.23-4.94-3.23-5.01,0h0Z"/><path id="Vector_4" class="cls-13" d="M478.48,96.21c3.7,0,6.7-6.79,6.7-15.16s-3-15.16-6.7-15.16-6.7,6.79-6.7,15.16,3,15.16,6.7,15.16Z"/><path id="Vector_5" class="cls-13" d="M557.31,96.21c3.7,0,6.7-6.79,6.7-15.16s-3-15.16-6.7-15.16-6.7,6.79-6.7,15.16,3,15.16,6.7,15.16Z"/><path id="Vector_6" class="cls-13" d="M520.76,225.14c1.17,1.42,1.49,3.53,1.8,5.28.34,2,.69,4.03.84,6.04.17,2.42-.09,4.85-.76,7.19-.66,2.44-.93,4.69-2.17,6.92-2.24,4.03-3.99,8.38-6.01,12.52-2.14,4.39-4.32,8.78-6.35,13.22-4.03,8.82-7.63,17.96-8.97,27.64-1.29,9.64-.18,19.45,3.25,28.55,1.68,4.52,3.87,8.88,7.32,12.31,3.34,3.33,7.76,6.22,12.48,6.98,4.19.68,9.84.4,12.93-2.91,2.79-3.01,3.89-8.12.75-11.31-3.06-3.11-7.36-2.34-11.06-1.1-4.33,1.45-8.01,3.86-9.82,8.21-1.65,3.99-2.19,9.28-1.13,13.47.61,2.4,1.6,4.74,2.36,7.11.74,2.49,1.78,4.89,3.09,7.13,1.29,2.13,2.66,4.17,3.69,6.45,1.03,2.28,1.96,4.67,2.79,7.05,1.57,4.55,1.92,9.47,1.73,14.26-.17,4.32-1.47,8.53-4.56,11.66-1.64,1.58-3.55,2.85-5.64,3.75-1.68.8-3.35,1.63-5.24,1.66-1.6,0-3.17-.34-4.22-1.62-.86-1.05-2.62-.87-3.52,0-1.04,1.01-.85,2.48,0,3.52,5.55,6.76,16.83,1.28,21.75-3.41,6.76-6.43,7.14-16.23,5.92-24.91-.67-4.79-2.43-9.25-4.35-13.65-1.96-4.48-5.05-8.22-6.55-12.91-.71-2.22-1.56-4.39-2.24-6.64-.6-2-.55-3.99-.4-6.07.34-4.24,1.81-7.76,5.86-9.58,1.79-.8,7.13-3.24,8.35-.32.57,1.37-.43,3.19-1.42,4.07-1.47,1.32-3.88,1.34-5.76,1.38-9.31.19-15.68-8.59-18.52-16.43-3.07-8.52-4.27-17.76-2.85-26.75,1.46-9.21,4.95-17.96,8.86-26.38,2.13-4.59,4.39-9.12,6.6-13.68,1.11-2.3,2.2-4.6,3.25-6.92,1.05-2.32,2.5-4.48,3.36-6.85.46-1.27.64-2.62.93-3.94s.73-2.57.95-3.9c.42-2.68.42-5.41,0-8.09-.62-4.34-.92-9-3.82-12.52-.86-1.04-2.62-.87-3.52,0-1.04,1.02-.85,2.49,0,3.52h0Z"/><path id="Vector_7" class="cls-6" d="M553.15,229.92c-3,3.01-12.06-1.16-20.31-9.33.02.71.04,1.43.04,2.16,0,11.76-3.48,21.28-7.77,21.28s-7.7-9.35-7.77-20.96c-.48.52-.98,1.04-1.5,1.55-8.31,8.31-17.51,12.59-20.54,9.56-5.35-5.35,4.18-15.36,7.53-19.06,3.17-3.45,6.51-6.73,10.01-9.84,1.27-1.14,2.53-2.32,3.87-3.39,4.89-3.94,8.72-2.4,14.09-.4,7.39,2.76,13.33,7.58,18,13.88,2.12,2.87,8,10.91,4.35,14.56Z"/><path id="Vector_8" class="cls-13" d="M525.11,248.18c-5.29,0-8.12-5.54-9.35-8.83-.86-2.4-1.48-4.88-1.86-7.4-2.63,2.16-5.5,3.99-8.56,5.48-3.23,1.5-9.21,3.46-12.97-.31-4.82-4.82-2.34-11.26-.44-14.67,2.19-3.92,5.45-7.5,7.4-9.64l.42-.47c3.26-3.55,6.7-6.94,10.31-10.14l.65-.59c1.08-.98,2.2-2,3.39-2.95,6.64-5.36,12.34-3.23,17.86-1.17l.29.11c7.84,2.93,14.54,8.08,19.88,15.29,2.52,3.4,10.17,13.74,3.95,19.96-3.74,3.73-9.66,1.83-12.85.36-2.31-1.09-4.51-2.4-6.56-3.92-.33,3.38-1.06,6.71-2.18,9.92-1.22,3.34-4.06,8.95-9.39,8.95ZM517.34,218.93c.51,0,1.03.1,1.51.28.77.3,1.44.83,1.91,1.51.47.68.73,1.5.73,2.33.05,9.18,2.29,14.83,3.62,16.5,1.35-1.68,3.62-7.44,3.62-16.79,0-.65,0-1.31-.04-2.02-.03-.83.2-1.65.64-2.35.44-.7,1.09-1.25,1.85-1.59.76-.33,1.6-.43,2.42-.28.82.15,1.57.54,2.16,1.13,6.75,6.68,12.5,9.03,14.43,9.11,0-.83-.51-3.25-4.72-8.93-4.39-5.9-9.8-10.1-16.12-12.46l-.3-.11c-5.27-1.97-6.91-2.44-9.74-.15-1.01.8-2,1.7-3.03,2.65l-.67.6c-3.4,3.01-6.64,6.2-9.71,9.54l-.44.48c-1.71,1.88-4.57,5.02-6.3,8.11-.71,1.27-1.74,3.45-1.11,4.53,1.73.1,7.75-2.22,14.85-9.33.44-.44.89-.91,1.39-1.45.39-.42.86-.75,1.38-.98s1.09-.35,1.66-.35h0Z"/><path id="Vector_9" class="cls-9" d="M469.8,129.87c7.24,0,13.11-2.93,13.11-6.56s-5.87-6.56-13.11-6.56-13.11,2.93-13.11,6.56,5.87,6.56,13.11,6.56Z"/><path id="Vector_10" class="cls-9" d="M564.01,129.87c7.24,0,13.11-2.93,13.11-6.56s-5.87-6.56-13.11-6.56-13.11,2.93-13.11,6.56,5.87,6.56,13.11,6.56Z"/><path id="Vector_11" class="cls-8" d="M511.12,36.09c5.49,0,9.94-2.99,9.94-6.67s-4.45-6.67-9.94-6.67-9.94,2.99-9.94,6.67,4.45,6.67,9.94,6.67Z"/><path id="Vector_12" class="cls-8" d="M485.17,44.16c3.32,0,6.01-1.81,6.01-4.04s-2.69-4.04-6.01-4.04-6.01,1.81-6.01,4.04,2.69,4.04,6.01,4.04Z"/><path id="Vector_13" class="cls-8" d="M591.78,37.52c-17.04-15.81-39.43-24.57-62.68-24.54-50.99,0-92.31,41.33-92.31,92.31-.04,23.25,8.73,45.66,24.55,62.7-9.36-8.63-16.83-19.12-21.94-30.78-5.1-11.67-7.73-24.27-7.72-37.01,0-50.98,41.33-92.32,92.32-92.32,12.73-.02,25.33,2.61,36.99,7.71,11.66,5.1,22.14,12.57,30.78,21.92h0Z"/><g id="Vector_14" class="cls-11"><path class="cls-7" d="M455.76,162.43c17.04,15.81,39.43,24.58,62.68,24.55,50.98,0,92.31-41.33,92.31-92.32.04-23.25-8.74-45.66-24.55-62.7,9.36,8.63,16.83,19.12,21.94,30.79,5.1,11.67,7.73,24.27,7.72,37.01,0,50.98-41.33,92.31-92.32,92.31-12.73.02-25.33-2.61-36.99-7.71-11.67-5.1-22.15-12.57-30.78-21.92h0Z"/></g></g></g></g></g></g></g></g></svg>