<?xml version="1.0" encoding="UTF-8"?><svg id="Layer_2" xmlns="http://www.w3.org/2000/svg" viewBox="0 0 674.39 765.76"><defs><style>.cls-1{fill:#4cdd56;}.cls-1,.cls-2,.cls-3,.cls-4,.cls-5{fill-rule:evenodd;}.cls-2{fill:#ff76db;}.cls-3{fill:#fe6855;}.cls-4{fill:#199bfe;}.cls-5{fill:#06243a;}</style></defs><g id="hand"><g id="Ink"><path id="inner-stroke" class="cls-5" d="M472.27,362.29c90.96-11.13,55.73-57.52-4.95-83.33-31.69-18.21-28.82-26.45-29.24-61.56-4.69-25.18,13.53-239.25-32.87-208.4-28.12,19.29-28.55,56.63-41.89,83.49-7.64-21.64-5.96-48.22-21.02-67.68-10.38-13.35-13.91-10.49-26.76-3.5-22.16,21.23-16.22,52.92-26.65,79.58-7.73-17.3-13.75-86.11-33.87-85.99-34.92,10.03-29.31,86.15-34.36,117.37,1.4,179.47,16.75,358.5,14.27,538.12-2.82,21.57,13.25,152.35,14.6,60.73-5.25-74.18-1.5-148.86-2.68-223.23-2.26-12.24,10.55-8.06,18.11-7.55,10.83-.31,2.84,53.6,5.4,64.52-2.46,51.72,8.3,102.5,9.77,154.03-.23,6.61,1.94,12.85,4.95,18.64,17.57,29.01,1.27-147.74,4.49-158.98,1.34-24.36-.6-48.61-3.69-72.77,1.94-8.9,18.31-2.27,25.51-3.99,3.26.09,4.31,1.54,3.87,5.05-5.18,45.6-.39,91.49.43,137.2-.04,37.5,3.19,74.66,6.87,111.9.21,3.75.62,10.79,6.1,8.5,8.19-3.97,3.76-15.47,4.97-22.94-2.25-45.4.82-90.77,1.2-136.17.25-32.3-.4-64.6-.67-96.9-.04-4.31.78-5.71,4.56-5.76,7.1,1.74,25.73-4.76,24.82,6.44-6.29,45.38.15,91.32-2.19,136.97-.17,33.66-.53,67.69,5,101.01,2.13,5.64.85,15.62,6.9,18.42,18.45,4.26,5.68-48.16,8.93-60.74.6-27.94,1.3-55.9,2.32-83.81,3.39-37.76-.42-75.44-4.03-113.02,4-9.58,22.13-3.55,31.02-5.01,1.43.02,2.28,1.47,1.95,3.24-4.67,17.04-3.01,34.51-2.4,51.92,2.83,32.67-4.99,65.08-4.15,97.82,3.46,19.14-6.91,92.46,6.92,99.28,15.98-.71,6.47-33.17,9.07-44.75.96-36.28.67-72.67,5.07-108.76,1.8-16.29,2.37-32.54.55-48.87,1.81-11.32-14.71-58.21,7.33-49.25,14.14-.77,7.14,36.4,10.02,46.84.59,65.46,7.36,132.25,15.07,197.11,4.06,9.13,15.31.43,13.92-7.24-1.54-36.28-2.48-72.56-3.72-108.86-.02-83.88-1.99-167.85-10.78-251.33-1.13-12.12.26-14.48,11.93-17.79ZM441.93,485.3c-1.26,9.02-14.93,1.69-21.16,2.82-33.34-.19-66.33-5.34-99.6-6.53-22.05-.4-44.15-2.88-66.14,1.09-11.83,3.41-8.37-10.73-8.74-17.9h-.02c.06-7.79-2.61-19.9,9.35-16.98,36.27,1.4,72.55,2.72,108.82,4,24.23,1.51,48.81-.03,72.76,4.25,9.3,4.28,2.89,20.57,4.73,29.25ZM440.19,371.55c-3.69,92.96,20.99,59.81-90.2,61.48-30.83-1.71-61.71-1.36-92.5,1.06-12.46.94-12.59,1.6-13.26-11.87-.38-7.61-.38-15.24-.38-22.87-2.77-115.74-22.12-232.62-2.23-347.74,15.54-65.3,22.76,37.59,27.83,54.22,7.38,21.61,4.24,90.54,23.32,97.67,25.04,3.75,6.29-90.89,15.05-110.96,1.71-26.86,16.83-102.39,29.87-31.9,6.56,39.07,7.96,78.74,15.7,117.64,3.66,18.51,24.64,15.98,22.93-3.4-1.65-25.6,8.54-141.63,34.64-146.6,7.68,35.48,1.66,72.52,2.3,108.54h-.66c4.93,45.6-8.34,99.18,16.01,139.75,21.92,19.02,49.22,30.75,73.87,45.83,29.41,19.31-62.99-2.15-62.29,49.15Z"/><path id="watch-fill" class="cls-3" d="M441.93,485.3c-1.26,9.02-14.93,1.69-21.16,2.82-33.34-.19-66.33-5.34-99.6-6.53-22.05-.4-44.15-2.88-66.14,1.09-11.83,3.41-8.37-10.73-8.74-17.9h-.02c.06-7.79-2.61-19.9,9.35-16.98,36.27,1.4,72.55,2.72,108.82,4,24.23,1.51,48.81-.03,72.76,4.25,9.3,4.28,2.89,20.57,4.73,29.25Z"/><path id="hand-fill" class="cls-4" d="M440.19,371.55c-3.69,92.96,20.99,59.81-90.2,61.48-30.83-1.71-61.71-1.36-92.5,1.06-12.46.94-12.59,1.6-13.26-11.87-.38-7.61-.38-15.24-.38-22.87-2.77-115.74-22.12-232.62-2.23-347.74,15.54-65.3,22.76,37.59,27.83,54.22,7.38,21.61,4.24,90.54,23.32,97.67,25.04,3.75,6.29-90.89,15.05-110.96,1.71-26.86,16.83-102.39,29.87-31.9,6.56,39.07,7.96,78.74,15.7,117.64,3.66,18.51,24.64,15.98,22.93-3.4-1.65-25.6,8.54-141.63,34.64-146.6,7.68,35.48,1.66,72.52,2.3,108.54h-.66c4.93,45.6-8.34,99.18,16.01,139.75,21.92,19.02,49.22,30.75,73.87,45.83,29.41,19.31-62.99-2.15-62.29,49.15Z"/><path id="x" class="cls-1" d="M78.21,247.71c1.02,9.09-10.09,18.55-16.8,9.35-6.21-8.49-3.94-19.74-8.45-28.93-4.69-10.17-37.27,2.9-48.82-.29-18.76-10.72,31.99-16.75,38.39-19.1,10.58-1.88-13.8-38.83,12.5-25.62,7.32,6.59,6.34,22.85,18.79,20.66,9.37,1.05,27.71-6.5,31.94,4.35,2.78,13.46-17.91,9.91-26.34,12.62-10.21,2.27.1,19.16-1.2,26.96h0Z"/><path id="x-2" class="cls-4" d="M119.83,11.87c.56,4.74-7.07,19.72,2.77,20.63,8.16-.5,40.68,17.78,23.31,22.9-38.19-13.91-30.71-15.16-41.64,22.1-1.67,4.77-5.8,6.24-10.37,6.45-15.96-2.06-5.28-23.71-4.14-33.71,4.25-10.55-3.05-11.85-11.57-13.54-4.01-.28-13.43-7.26-6.76-10.03,13.89-2.35,24.26,7.74,30.38-9.47,4.65-9.79,20.75-30.21,18.03-5.33h0Z"/><path id="x-3" class="cls-2" d="M614.8,218.83c18.09,4.99,16.91-8.13,23.4-20.6,16.07-25.53,13.53,8.81,11.3,20.45-1.37,13.42,20.05,8.57,24.83,18.71,1.07,12.3-16.5,3.72-23.07,2.89-7.89-4.38-18.34,47.06-29,29.18-7.76-10.44-.47-21.02,2.56-31.84.66-10.89-19.31-6.11-25.63-12.96-6.38-8.83,10.99-5.57,15.6-6.08,0,.08,0,.17,0,.25h0Z"/><path id="x-4" class="cls-3" d="M584.88,548.72c-15.89-5.88-13.49-35.22-34.62-24.59-4.53.8-25.54,8.36-22.05-1.01,24.93-17.74,32.74-4.61,19.09-36.38-.44-2.13-.74-4.59,1.52-5.87,15.56-6.7,17.81,27.93,33.72,19.08,29.09-15.74,38.73,10.24,4.63,14.66-13.2,7.16,25.89,34.17-2.28,34.11h0Z"/></g></g></svg>