<?xml version="1.0" encoding="utf-8"?>
<svg viewBox="243 351 593.9999999999999 485.99999999999983" fill="none" overflow="visible" width="593.9999999999999px" height="485.99999999999983px" xmlns="http://www.w3.org/2000/svg">
  <g id="Master/Mariana Gonzalez/Heart Eyes 2">
    <path id="Vector" d="M827.747 794.687L826.747 795.587V794.987C827.347 794.787 827.647 794.687 827.747 794.687Z" fill="black"/>
    <g id="Group">
      <g id="Group_2">
        <path id="Vector_2" d="M527.123 802.887C648.681 802.887 747.223 711.463 747.223 598.687C747.223 485.91 648.681 394.487 527.123 394.487C405.566 394.487 307.023 485.91 307.023 598.687C307.023 711.463 405.566 802.887 527.123 802.887Z" fill="#FFC001"/>
        <path id="Vector (Stroke)" fill-rule="evenodd" clip-rule="evenodd" d="M527.123 396.487C406.526 396.487 309.023 487.153 309.023 598.687C309.023 710.22 406.526 800.887 527.123 800.887C647.721 800.887 745.223 710.22 745.223 598.687C745.223 487.153 647.721 396.487 527.123 396.487ZM305.023 598.687C305.023 484.667 404.605 392.487 527.123 392.487C649.642 392.487 749.223 484.667 749.223 598.687C749.223 712.706 649.642 804.887 527.123 804.887C404.605 804.887 305.023 712.706 305.023 598.687Z" fill="black"/>
      </g>
      <g id="Group_3">
        <g id="Group_4">
          <path id="Vector_3" d="M623.123 740.487C623.123 740.487 577.823 760.387 626.823 807.887C675.823 855.387 705.223 821.187 705.223 821.187C705.223 821.187 795.023 832.487 804.223 740.787C804.223 740.787 813.023 698.887 788.323 673.687C788.323 673.687 797.923 629.287 757.423 611.487C716.923 593.687 712.623 616.687 712.623 616.687C712.623 616.687 664.223 595.087 639.923 647.087C615.623 698.987 623.123 740.487 623.123 740.487Z" fill="#FFC001"/>
          <path id="Vector (Stroke)_2" fill-rule="evenodd" clip-rule="evenodd" d="M718.84 605.677C725.782 601.69 737.731 600.647 758.228 609.656C779.214 618.879 787.265 635.07 790.022 648.87C791.395 655.743 791.461 662.029 791.187 666.591C791.049 668.876 790.826 670.737 790.635 672.035C790.579 672.421 790.525 672.758 790.477 673.041C802.732 686.034 806.646 702.969 807.532 716.557C807.984 723.505 807.65 729.644 807.202 734.048C806.978 736.252 806.726 738.026 806.528 739.255C806.429 739.87 806.344 740.348 806.282 740.677C806.252 740.841 806.227 740.968 806.21 741.055C806.207 741.066 806.205 741.077 806.203 741.087C803.858 764.3 796.399 781.142 786.419 793.304C776.433 805.473 764.019 812.839 751.961 817.252C739.912 821.662 728.184 823.138 719.485 823.518C715.131 823.708 711.523 823.623 708.995 823.49C707.731 823.424 706.736 823.346 706.052 823.283C706.034 823.281 706.017 823.28 705.999 823.278C705.788 823.491 705.532 823.742 705.231 824.023C704.272 824.921 702.859 826.134 701.01 827.427C697.315 830.013 691.852 832.941 684.779 834.313C670.505 837.08 650.272 833.403 625.431 809.323C613.038 797.309 606.439 786.882 603.663 777.908C600.868 768.875 601.98 761.417 604.793 755.514C607.58 749.665 611.978 745.46 615.612 742.738C617.437 741.37 619.093 740.36 620.299 739.687C620.525 739.561 620.736 739.447 620.929 739.345C620.908 739.193 620.887 739.029 620.865 738.855C620.702 737.583 620.5 735.72 620.336 733.329C620.007 728.546 619.827 721.644 620.416 713.112C621.592 696.046 625.84 672.448 638.112 646.239C650.59 619.538 669.432 611.541 685.241 610.392C693.076 609.823 700.103 610.935 705.16 612.182C707.693 612.807 709.743 613.468 711.168 613.977C711.241 614.002 711.312 614.028 711.382 614.053C711.588 613.556 711.849 612.999 712.177 612.405C713.352 610.275 715.392 607.657 718.84 605.677ZM711.808 618.513L711.807 618.513L711.789 618.505C711.771 618.497 711.741 618.484 711.701 618.467C711.619 618.432 711.494 618.379 711.325 618.311C710.988 618.176 710.482 617.979 709.824 617.744C708.508 617.274 706.587 616.654 704.202 616.066C699.425 614.888 692.833 613.851 685.531 614.381C671.064 615.433 653.557 622.635 641.735 647.933L641.735 647.935C629.706 673.625 625.555 696.727 624.406 713.387C623.832 721.717 624.009 728.434 624.326 733.054C624.485 735.364 624.68 737.149 624.832 738.349C624.909 738.949 624.975 739.402 625.022 739.702C625.045 739.852 625.063 739.963 625.075 740.035L625.088 740.113L625.091 740.131L625.372 741.683L623.93 742.317L623.929 742.317L623.928 742.318L623.914 742.324C623.903 742.329 623.886 742.337 623.864 742.347L623.837 742.359C623.766 742.392 623.655 742.444 623.509 742.516C623.218 742.66 622.785 742.881 622.246 743.182C621.166 743.783 619.666 744.698 618.01 745.939C614.682 748.432 610.817 752.171 608.404 757.235C606.017 762.244 604.991 768.667 607.484 776.725C609.995 784.841 616.109 794.715 628.215 806.451C652.375 829.87 671.342 832.843 684.018 830.386C690.42 829.145 695.369 826.492 698.717 824.15C700.39 822.979 701.657 821.89 702.497 821.104C702.917 820.711 703.23 820.394 703.432 820.181C703.483 820.128 703.526 820.081 703.563 820.041C703.6 820.001 703.63 819.969 703.653 819.943C703.676 819.918 703.692 819.9 703.701 819.89L703.707 819.883L703.708 819.881L703.709 819.88L704.407 819.068L705.472 819.202L705.473 819.202L705.481 819.203L705.522 819.208C705.56 819.213 705.619 819.22 705.698 819.228C705.857 819.246 706.098 819.271 706.416 819.3C707.052 819.358 707.996 819.432 709.205 819.496C711.624 819.623 715.103 819.705 719.311 819.521C727.738 819.154 739.034 817.724 750.586 813.496C762.128 809.272 773.888 802.269 783.327 790.766C792.758 779.273 799.967 763.172 802.233 740.587L802.244 740.48L802.266 740.376L802.267 740.373L802.27 740.356L802.286 740.276C802.294 740.238 802.303 740.19 802.314 740.132C802.325 740.078 802.337 740.015 802.35 739.943C802.406 739.645 802.485 739.199 802.579 738.619C802.766 737.458 803.007 735.762 803.223 733.644C803.653 729.404 803.975 723.493 803.54 716.817C802.667 703.42 798.769 687.201 786.895 675.087L786.141 674.317L786.368 673.266L786.368 673.264L786.372 673.247C786.376 673.23 786.381 673.203 786.389 673.166C786.403 673.092 786.426 672.977 786.454 672.823C786.51 672.515 786.59 672.053 786.678 671.454C786.854 670.254 787.064 668.507 787.194 666.351C787.454 662.032 787.389 656.105 786.1 649.654C783.532 636.803 776.132 621.894 756.619 613.318C736.616 604.526 726.164 606.083 720.832 609.146C718.142 610.691 716.576 612.711 715.679 614.337C715.23 615.152 714.95 615.866 714.786 616.362C714.704 616.609 714.651 616.801 714.621 616.922C714.606 616.982 714.596 617.025 714.591 617.048L714.588 617.06L714.587 617.064L714.587 617.067L714.123 619.546L711.81 618.514L711.808 618.513Z" fill="black"/>
          <g id="Group_5">
            <path id="Vector (Stroke)_3" fill-rule="evenodd" clip-rule="evenodd" d="M711.274 614.925C712.137 614.235 713.395 614.375 714.085 615.237C716.03 617.668 719.652 623.708 723.375 631.429C727.118 639.192 731.042 648.816 733.535 658.474C736.015 668.085 737.142 677.968 735.048 686.129C733.993 690.243 732.107 693.963 729.129 696.962C726.147 699.965 722.166 702.149 717.077 703.335L717.076 703.335C707.057 705.663 699.203 704.164 693.131 700.404C687.117 696.68 683.071 690.875 680.345 684.962C677.614 679.04 676.141 672.87 675.347 668.212C674.949 665.876 674.719 663.903 674.589 662.509C674.523 661.811 674.483 661.258 674.458 660.875C674.446 660.683 674.438 660.534 674.433 660.431C674.43 660.379 674.428 660.339 674.427 660.311L674.425 660.278L674.425 660.268L674.425 660.265C674.425 660.264 674.425 660.263 676.423 660.187L674.425 660.263C674.383 659.159 675.244 658.23 676.348 658.188C677.451 658.146 678.38 659.007 678.422 660.11C678.422 660.11 678.422 660.11 678.422 660.11L678.422 660.11L678.422 660.111L678.422 660.114L678.423 660.135C678.424 660.155 678.425 660.187 678.427 660.23C678.432 660.316 678.439 660.447 678.45 660.62C678.472 660.966 678.51 661.48 678.571 662.136C678.694 663.446 678.912 665.318 679.29 667.54C680.05 671.998 681.445 677.796 683.977 683.287C686.513 688.786 690.123 693.837 695.237 697.004C700.294 700.134 707.04 701.561 716.171 699.439C720.631 698.399 723.909 696.542 726.291 694.143C728.677 691.74 730.26 688.695 731.174 685.135C733.017 677.949 732.082 668.851 729.662 659.474C727.254 650.145 723.441 640.775 719.772 633.166C716.083 625.515 712.617 619.805 710.962 617.736C710.272 616.874 710.412 615.615 711.274 614.925Z" fill="black"/>
            <path id="Vector (Stroke)_4" fill-rule="evenodd" clip-rule="evenodd" d="M760.504 705.383C734.43 703.821 713.55 714.261 700.863 729.563C700.158 730.413 698.897 730.531 698.047 729.826C697.197 729.121 697.079 727.86 697.784 727.01C711.297 710.712 733.417 699.753 760.743 701.39L760.623 703.387L760.743 701.39C775.111 702.248 786.215 713.413 793.556 723.781C797.269 729.026 800.121 734.209 802.042 738.074C803.005 740.01 803.737 741.621 804.23 742.753C804.477 743.319 804.664 743.765 804.79 744.073C804.854 744.227 804.902 744.346 804.934 744.428L804.972 744.523L804.982 744.549L804.985 744.557L804.986 744.559C804.987 744.56 804.987 744.561 803.123 745.287L804.987 744.561C805.388 745.59 804.879 746.749 803.849 747.15C802.82 747.551 801.661 747.042 801.26 746.013L801.26 746.013L801.26 746.013L801.259 746.009L801.252 745.992L801.221 745.914C801.192 745.843 801.149 745.736 801.091 745.594C800.974 745.311 800.798 744.89 800.563 744.351C800.093 743.273 799.389 741.723 798.461 739.855C796.601 736.115 793.852 731.122 790.291 726.092C783.082 715.911 772.936 706.125 760.504 705.383L760.504 705.383Z" fill="black"/>
            <path id="Vector (Stroke)_5" fill-rule="evenodd" clip-rule="evenodd" d="M734.058 663.247L734.066 663.244L734.115 663.225C734.162 663.207 734.236 663.18 734.337 663.144C734.54 663.071 734.849 662.965 735.257 662.836C736.073 662.579 737.283 662.232 738.821 661.891C741.901 661.207 746.28 660.546 751.446 660.649C761.749 660.853 775.208 664.087 787.831 676.323C788.625 677.091 789.891 677.072 790.659 676.279C791.428 675.486 791.409 674.219 790.615 673.451C777.138 660.387 762.648 656.87 751.526 656.65C745.979 656.54 741.278 657.248 737.954 657.986C736.291 658.355 734.968 658.733 734.053 659.022C733.595 659.166 733.239 659.289 732.992 659.377C732.868 659.421 732.772 659.457 732.704 659.482C732.67 659.495 732.644 659.505 732.624 659.513L732.6 659.522L732.592 659.525L732.589 659.526C732.588 659.527 732.587 659.527 733.316 661.367L732.587 659.527C731.56 659.934 731.057 661.096 731.464 662.123C731.87 663.149 733.032 663.652 734.058 663.247Z" fill="black"/>
            <path id="Vector (Stroke)_6" fill-rule="evenodd" clip-rule="evenodd" d="M745.602 762.972C744.698 768.857 744.958 773.691 745.42 777.389C745.615 778.945 745.841 780.276 746.04 781.446C746.11 781.858 746.176 782.249 746.237 782.624C746.35 783.321 746.447 783.99 746.487 784.578C746.526 785.129 746.534 785.82 746.337 786.469C746.015 787.526 744.898 788.122 743.841 787.8C742.792 787.481 742.197 786.377 742.503 785.327C742.503 785.328 742.503 785.327 742.503 785.327C742.501 785.327 742.521 785.2 742.497 784.856C742.47 784.462 742.399 783.946 742.288 783.262C742.235 782.934 742.174 782.573 742.107 782.182C741.906 780.997 741.658 779.537 741.451 777.885C740.895 773.434 740.61 767.413 742.061 760.002L742.502 757.749L744.673 758.495L744.68 758.498L744.709 758.507C744.735 758.516 744.776 758.53 744.831 758.548C744.941 758.585 745.107 758.639 745.325 758.708C745.76 758.846 746.399 759.042 747.203 759.271C748.813 759.73 751.078 760.319 753.688 760.838C758.966 761.886 765.424 762.596 770.728 761.526C771.811 761.308 772.865 762.008 773.084 763.091C773.302 764.174 772.602 765.229 771.519 765.447C765.422 766.677 758.331 765.838 752.909 764.761C750.169 764.217 747.796 763.6 746.106 763.118C745.931 763.068 745.762 763.019 745.602 762.972Z" fill="black"/>
            <path id="Vector_4" d="M679.023 765.887C679.023 765.887 693.723 753.087 697.423 740.987Z" fill="white"/>
            <path id="Vector (Stroke)_7" fill-rule="evenodd" clip-rule="evenodd" d="M696.985 740.088C698.041 740.411 698.636 741.529 698.313 742.585C696.332 749.061 691.492 755.551 687.315 760.308C685.203 762.714 683.21 764.732 681.745 766.149C681.012 766.858 680.409 767.419 679.988 767.804C679.777 767.997 679.611 768.146 679.496 768.247C679.439 768.298 679.395 768.338 679.364 768.365L679.328 768.396L679.318 768.405L679.314 768.408C679.314 768.409 679.313 768.409 678 766.901L679.314 768.408C678.481 769.134 677.217 769.047 676.492 768.214C675.766 767.381 675.854 766.118 676.687 765.392L676.693 765.387L676.721 765.363C676.746 765.34 676.784 765.306 676.836 765.261C676.938 765.169 677.092 765.031 677.29 764.85C677.687 764.488 678.261 763.954 678.964 763.274C680.371 761.913 682.285 759.975 684.31 757.669C688.408 753 692.767 747.04 694.487 741.416C694.81 740.359 695.928 739.765 696.985 740.088Z" fill="black"/>
            <path id="Vector_5" d="M666.023 694.287C666.023 694.287 677.723 704.587 692.423 702.387Z" fill="white"/>
            <path id="Vector (Stroke)_8" fill-rule="evenodd" clip-rule="evenodd" d="M667 693C665.678 694.501 665.679 694.502 665.68 694.502L665.681 694.504L665.685 694.507L665.696 694.516L665.73 694.546C665.759 694.571 665.799 694.605 665.85 694.647C665.952 694.733 666.098 694.853 666.286 695.003C666.663 695.303 667.21 695.721 667.909 696.212C669.305 697.192 671.32 698.47 673.818 699.676C678.795 702.08 685.813 704.258 693.696 703.078C694.788 702.915 695.541 701.897 695.378 700.804C695.214 699.712 694.196 698.959 693.104 699.122C686.287 700.142 680.105 698.27 675.557 696.074C673.292 694.98 671.464 693.821 670.207 692.938C669.579 692.498 669.097 692.128 668.777 691.873C668.616 691.746 668.497 691.647 668.42 691.583C668.382 691.551 668.355 691.527 668.338 691.513L668.321 691.499C668.321 691.498 668.32 691.497 668.32 691.497C667.491 690.769 666.228 690.85 665.499 691.678C664.769 692.508 664.849 693.771 665.678 694.501L667 693ZM668.321 691.498C668.321 691.498 668.321 691.498 668.321 691.498L668.321 691.498C668.321 691.498 668.321 691.498 668.321 691.498Z" fill="black"/>
          </g>
        </g>
      </g>
      <g id="Group_6">
        <g id="Group_7">
          <path id="Vector_6" d="M435.623 734.587C435.623 734.587 480.923 754.487 431.923 801.987C382.923 849.487 353.523 815.287 353.523 815.287C353.523 815.287 263.723 826.587 254.523 734.887C254.523 734.887 245.723 692.987 270.423 667.787C270.423 667.787 260.823 623.387 301.323 605.587C341.823 587.787 346.123 610.787 346.123 610.787C346.123 610.787 394.523 589.187 418.823 641.187C443.123 693.087 435.623 734.587 435.623 734.587Z" fill="#FFC001"/>
          <path id="Vector (Stroke)_9" fill-rule="evenodd" clip-rule="evenodd" d="M337.915 603.246C332.582 600.183 322.131 598.626 302.128 607.418C282.614 615.994 275.215 630.903 272.647 643.754C271.358 650.205 271.293 656.132 271.553 660.451C271.682 662.607 271.893 664.354 272.069 665.554C272.157 666.153 272.236 666.615 272.293 666.923C272.321 667.077 272.343 667.192 272.358 667.266C272.366 667.303 272.371 667.33 272.375 667.347L272.378 667.363L272.378 667.365L272.606 668.417L271.852 669.187C259.978 681.301 256.079 697.519 255.207 710.917C254.772 717.593 255.093 723.504 255.524 727.744C255.739 729.862 255.981 731.559 256.168 732.719C256.262 733.3 256.341 733.746 256.397 734.043C256.425 734.192 256.446 734.304 256.461 734.376L256.477 734.456L256.48 734.473L256.481 734.476L256.503 734.581L256.513 734.687C258.779 757.272 265.988 773.374 275.42 784.867C284.858 796.369 296.619 803.372 308.161 807.596C319.712 811.824 331.009 813.254 339.436 813.621C343.644 813.805 347.123 813.723 349.542 813.596C350.751 813.532 351.695 813.458 352.331 813.4C352.648 813.37 352.89 813.345 353.049 813.328C353.128 813.319 353.187 813.313 353.225 813.308L353.265 813.303L353.274 813.302L353.275 813.302L354.34 813.168L355.038 813.98L355.039 813.981L355.04 813.983L355.046 813.989C355.051 813.996 355.059 814.004 355.07 814.016C355.076 814.024 355.085 814.033 355.094 814.043C355.14 814.094 355.213 814.174 355.315 814.281C355.517 814.494 355.83 814.81 356.249 815.204C357.09 815.99 358.356 817.079 360.029 818.25C363.378 820.592 368.327 823.245 374.729 824.486C387.405 826.943 406.372 823.97 430.531 800.551C442.638 788.815 448.752 778.941 451.263 770.825C453.756 762.767 452.73 756.344 450.343 751.335C447.93 746.271 444.065 742.532 440.737 740.039C439.081 738.798 437.58 737.883 436.501 737.282C435.962 736.981 435.529 736.76 435.237 736.616C435.091 736.545 434.981 736.492 434.91 736.459C434.874 736.443 434.848 736.431 434.833 736.424L434.819 736.418L434.818 736.417L434.817 736.417L433.375 735.783L433.655 734.232L433.655 734.231L433.656 734.23L433.659 734.213L433.672 734.135C433.684 734.063 433.702 733.952 433.725 733.802C433.772 733.503 433.838 733.049 433.914 732.449C434.067 731.249 434.261 729.464 434.42 727.154C434.738 722.534 434.915 715.817 434.341 707.487C433.192 690.827 429.041 667.725 417.012 642.035L417.011 642.034C405.189 616.735 387.682 609.533 373.216 608.482C365.913 607.951 359.322 608.988 354.544 610.166C352.16 610.754 350.239 611.374 348.923 611.844C348.265 612.079 347.758 612.275 347.422 612.411C347.253 612.479 347.127 612.532 347.046 612.567C347.021 612.577 347.001 612.586 346.984 612.593C346.974 612.598 346.965 612.602 346.958 612.605L346.94 612.613L346.939 612.613L346.937 612.614L344.623 613.646L344.16 611.166L344.159 611.164L344.159 611.16L344.156 611.147C344.151 611.125 344.141 611.082 344.126 611.022C344.095 610.901 344.043 610.709 343.961 610.462C343.797 609.966 343.517 609.252 343.068 608.437C342.171 606.811 340.605 604.791 337.915 603.246ZM347.365 608.153C347.159 607.656 346.898 607.099 346.57 606.505C345.395 604.375 343.354 601.757 339.907 599.777C332.964 595.79 321.016 594.747 300.519 603.756C279.532 612.979 271.482 629.17 268.725 642.97C267.351 649.843 267.285 656.129 267.56 660.691C267.697 662.976 267.921 664.837 268.111 666.135C268.168 666.521 268.222 666.858 268.27 667.141C256.015 680.133 252.1 697.069 251.215 710.657C250.763 717.605 251.097 723.744 251.545 728.148C251.769 730.352 252.021 732.126 252.219 733.355C252.318 733.97 252.403 734.449 252.465 734.777C252.495 734.941 252.52 735.068 252.537 735.155C252.54 735.167 252.542 735.177 252.544 735.187C254.889 758.4 262.348 775.243 272.327 787.404C282.314 799.573 294.728 806.939 306.786 811.352C318.835 815.762 330.563 817.238 339.261 817.618C343.616 817.808 347.224 817.723 349.752 817.59C351.016 817.524 352.011 817.445 352.695 817.383C352.713 817.381 352.73 817.38 352.747 817.378C352.959 817.591 353.215 817.842 353.515 818.123C354.474 819.021 355.887 820.233 357.736 821.527C361.432 824.112 366.895 827.041 373.968 828.413C388.242 831.18 408.475 827.503 433.315 803.423C445.709 791.408 452.308 780.982 455.084 772.007C457.878 762.975 456.767 755.517 453.954 749.614C451.167 743.765 446.769 739.56 443.135 736.838C441.31 735.47 439.654 734.46 438.448 733.788C438.222 733.662 438.011 733.547 437.818 733.445C437.838 733.293 437.86 733.129 437.882 732.955C438.044 731.683 438.246 729.82 438.411 727.429C438.74 722.646 438.919 715.744 438.331 707.212C437.155 690.146 432.906 666.549 420.635 640.339C408.157 613.638 389.314 605.641 373.506 604.492C365.671 603.923 358.644 605.035 353.587 606.282C351.054 606.907 349.004 607.568 347.579 608.076C347.506 608.102 347.435 608.128 347.365 608.153Z" fill="black"/>
          <g id="Group_8">
            <path id="Vector (Stroke)_10" fill-rule="evenodd" clip-rule="evenodd" d="M347.473 609.025C348.335 609.715 348.475 610.974 347.785 611.836C346.13 613.905 342.664 619.615 338.975 627.266C335.306 634.875 331.492 644.245 329.085 653.574C326.665 662.951 325.729 672.049 327.573 679.235C328.486 682.795 330.07 685.84 332.456 688.243C334.838 690.642 338.116 692.499 342.576 693.539C351.707 695.66 358.453 694.234 363.509 691.103C368.623 687.937 372.234 682.886 374.77 677.387C377.302 671.896 378.697 666.098 379.456 661.64C379.835 659.418 380.053 657.546 380.176 656.235C380.237 655.58 380.275 655.066 380.297 654.72C380.308 654.547 380.315 654.415 380.319 654.329C380.321 654.286 380.323 654.255 380.324 654.235L380.325 654.214L380.325 654.211C380.367 653.108 381.296 652.246 382.399 652.288C383.503 652.33 384.364 653.259 384.322 654.362L382.323 654.287C384.322 654.362 384.322 654.363 384.322 654.365L384.321 654.378L384.32 654.411C384.319 654.439 384.317 654.479 384.314 654.531C384.309 654.634 384.301 654.783 384.289 654.974C384.264 655.358 384.223 655.911 384.158 656.609C384.027 658.003 383.798 659.976 383.4 662.312C382.606 666.969 381.133 673.14 378.402 679.062C375.675 684.975 371.63 690.78 365.615 694.504C359.543 698.264 351.689 699.763 341.671 697.435L341.67 697.434C336.581 696.249 332.6 694.065 329.617 691.062C326.64 688.062 324.754 684.343 323.699 680.229C321.605 672.068 322.732 662.185 325.212 652.574C327.704 642.916 331.628 633.292 335.372 625.529C339.095 617.808 342.717 611.768 344.662 609.337C345.352 608.475 346.61 608.335 347.473 609.025Z" fill="black"/>
            <path id="Vector (Stroke)_11" fill-rule="evenodd" clip-rule="evenodd" d="M360.782 692.729C361.808 692.32 362.972 692.82 363.381 693.846L361.523 694.587C363.381 693.846 363.381 693.846 363.382 693.847L363.382 693.849L363.384 693.854L363.39 693.868L363.409 693.917C363.425 693.958 363.447 694.017 363.476 694.092C363.532 694.242 363.611 694.457 363.707 694.732C363.899 695.281 364.159 696.069 364.439 697.04C364.998 698.979 365.645 701.677 365.986 704.7C366.615 710.279 366.251 717.449 361.766 722.784C361.999 723.388 362.28 724.188 362.55 725.146C363.168 727.338 363.743 730.404 363.532 733.847C363.32 737.305 362.311 741.15 359.759 744.831C357.207 748.511 353.191 751.914 347.141 754.612C334.686 760.218 322.555 755.769 313.844 750.279C309.459 747.515 305.834 744.424 303.309 742.032C302.044 740.834 301.049 739.805 300.367 739.071C300.025 738.704 299.762 738.411 299.581 738.206C299.491 738.104 299.421 738.024 299.373 737.968L299.317 737.903L299.301 737.884L299.296 737.878L299.295 737.876C299.294 737.876 299.294 737.875 300.823 736.587L299.294 737.875C298.582 737.03 298.69 735.768 299.535 735.057C300.38 734.346 301.641 734.453 302.353 735.298L302.362 735.309L302.404 735.357C302.442 735.401 302.501 735.469 302.58 735.559C302.739 735.74 302.979 736.007 303.295 736.347C303.928 737.028 304.864 737.996 306.06 739.129C308.456 741.399 311.875 744.309 315.977 746.895C324.241 752.104 334.859 755.755 345.502 750.963L345.509 750.96C351.007 748.508 354.402 745.536 356.472 742.552C358.542 739.567 359.364 736.456 359.54 733.602C359.716 730.732 359.235 728.13 358.7 726.231C358.434 725.286 358.157 724.528 357.951 724.015C357.849 723.758 357.764 723.563 357.707 723.438C357.679 723.375 357.658 723.33 357.645 723.303L357.633 723.278L357.632 723.276L357.631 723.275L357.631 723.273L356.996 721.997L358.002 720.98C362.046 716.892 362.641 710.735 362.011 705.148C361.702 702.409 361.112 699.938 360.595 698.149C360.338 697.256 360.101 696.54 359.931 696.051C359.845 695.807 359.777 695.62 359.731 695.497C359.708 695.436 359.69 695.39 359.679 695.362L359.667 695.332L359.666 695.328L359.665 695.327C359.257 694.301 359.757 693.138 360.782 692.729Z" fill="black"/>
            <path id="Vector (Stroke)_12" fill-rule="evenodd" clip-rule="evenodd" d="M298.004 695.49C325.33 693.853 347.45 704.812 360.963 721.11C361.668 721.96 361.55 723.221 360.7 723.926C359.85 724.631 358.589 724.513 357.884 723.663C345.197 708.361 324.317 697.92 298.243 699.483C285.811 700.225 275.665 710.01 268.456 720.192C264.894 725.222 262.146 730.215 260.286 733.955C259.358 735.823 258.654 737.373 258.184 738.451C257.949 738.99 257.773 739.411 257.656 739.694C257.598 739.836 257.554 739.943 257.526 740.014L257.495 740.092L257.488 740.109L257.487 740.113C257.086 741.141 255.926 741.651 254.897 741.25C253.868 740.849 253.359 739.69 253.76 738.661L255.623 739.387C253.76 738.661 253.76 738.66 253.76 738.659L253.764 738.649L253.775 738.623L253.812 738.528C253.845 738.446 253.893 738.327 253.957 738.173C254.083 737.865 254.27 737.419 254.517 736.853C255.01 735.721 255.742 734.11 256.704 732.174C258.626 728.309 261.477 723.126 265.191 717.881C272.532 707.513 283.636 696.348 298.004 695.49Z" fill="black"/>
            <path id="Vector (Stroke)_13" fill-rule="evenodd" clip-rule="evenodd" d="M326.157 653.726C326.159 653.727 326.16 653.727 325.429 655.572L326.16 653.727C327.187 654.134 327.69 655.296 327.283 656.323C326.876 657.349 325.716 657.852 324.689 657.447C324.689 657.447 324.689 657.447 324.689 657.447L324.687 657.446L324.681 657.444L324.632 657.425C324.585 657.407 324.511 657.38 324.409 657.344C324.207 657.271 323.898 657.165 323.49 657.036C322.674 656.779 321.464 656.432 319.926 656.091C316.846 655.407 312.467 654.746 307.301 654.849C296.997 655.053 283.538 658.287 270.915 670.523C270.122 671.291 268.856 671.272 268.087 670.479C267.319 669.686 267.338 668.419 268.131 667.651C281.608 654.587 296.099 651.07 307.221 650.849C312.767 650.739 317.469 651.448 320.793 652.186C322.456 652.555 323.778 652.933 324.694 653.222C325.152 653.366 325.508 653.489 325.755 653.577C325.879 653.621 325.975 653.657 326.043 653.682C326.076 653.695 326.103 653.705 326.123 653.713L326.147 653.722L326.155 653.725L326.157 653.726Z" fill="black"/>
            <path id="Vector (Stroke)_14" fill-rule="evenodd" clip-rule="evenodd" d="M316.245 751.948L316.686 754.202C318.137 761.613 317.852 767.634 317.295 772.085C317.089 773.737 316.841 775.197 316.64 776.382C316.573 776.773 316.512 777.134 316.459 777.462C316.348 778.146 316.277 778.662 316.25 779.056C316.226 779.4 316.246 779.527 316.244 779.528C316.244 779.528 316.244 779.528 316.243 779.527C316.55 780.577 315.955 781.681 314.906 782C313.849 782.322 312.732 781.726 312.41 780.669C312.212 780.02 312.221 779.329 312.259 778.778C312.3 778.19 312.397 777.521 312.51 776.824C312.571 776.449 312.637 776.058 312.707 775.646C312.906 774.476 313.132 773.145 313.326 771.589C313.789 767.891 314.049 763.057 313.145 757.172C312.985 757.219 312.816 757.268 312.64 757.318C310.951 757.8 308.578 758.417 305.838 758.961C300.416 760.038 293.324 760.877 287.228 759.647C286.145 759.429 285.444 758.374 285.663 757.291C285.881 756.209 286.936 755.508 288.019 755.726C293.322 756.796 299.781 756.086 305.059 755.038C307.669 754.519 309.934 753.93 311.544 753.471C312.348 753.242 312.987 753.046 313.422 752.908C313.639 752.839 313.806 752.785 313.916 752.748C313.971 752.73 314.012 752.716 314.038 752.707L314.067 752.698L314.073 752.696L314.073 752.696L314.073 752.695L314.073 752.695L316.245 751.948Z" fill="black"/>
            <path id="Vector_7" d="M392.723 688.387C392.723 688.387 381.023 698.687 366.323 696.487Z" fill="white"/>
            <path id="Vector (Stroke)_15" fill-rule="evenodd" clip-rule="evenodd" d="M390.08 685.498C390.909 684.769 392.172 684.85 392.901 685.678C393.631 686.508 393.551 687.771 392.722 688.501L391.4 687C392.722 688.501 392.721 688.502 392.721 688.502L392.719 688.504L392.715 688.507L392.705 688.516L392.67 688.546C392.642 688.571 392.602 688.605 392.551 688.647C392.449 688.733 392.302 688.854 392.114 689.003C391.737 689.303 391.191 689.721 390.492 690.212C389.095 691.192 387.08 692.47 384.583 693.676C379.605 696.08 372.587 698.258 364.704 697.078C363.612 696.914 362.859 695.896 363.022 694.804C363.186 693.711 364.204 692.958 365.296 693.122C372.113 694.142 378.295 692.27 382.843 690.074C385.108 688.98 386.936 687.82 388.193 686.938C388.821 686.498 389.303 686.128 389.624 685.873C389.784 685.746 389.903 685.647 389.98 685.583C390.018 685.551 390.046 685.527 390.062 685.513L390.079 685.499L390.079 685.499L390.08 685.498Z" fill="black"/>
          </g>
        </g>
      </g>
      <path id="Vector_8" d="M 442.947 356.094 C 405.947 369.094 405.547 404.894 405.547 404.894 C 405.547 404.894 381.447 378.494 345.147 393.394 C 308.847 408.294 302.247 456.094 332.447 484.394 C 362.647 512.794 453.547 530.894 453.547 530.894 C 453.547 530.894 509.347 456.794 513.047 415.594 C 516.747 374.294 480.047 343.094 442.947 356.094 Z" fill="#FF2925"/>
      <path id="Vector (Stroke)_16" fill-rule="evenodd" clip-rule="evenodd" d="M448.453 356.789C487.378 343.15 525.471 375.954 521.642 418.694C520.683 429.383 516.375 442.022 510.588 454.841C504.783 467.7 497.409 480.913 490.175 492.797C482.937 504.687 475.818 515.278 470.51 522.896C467.856 526.706 465.652 529.774 464.111 531.892C463.34 532.951 462.735 533.773 462.322 534.33C462.115 534.609 461.956 534.822 461.849 534.966L461.726 535.13L461.687 535.183L461.684 535.186C461.684 535.187 461.683 535.187 459.823 533.787C459.369 536.07 459.368 536.07 459.367 536.07L459.298 536.056L459.098 536.016C458.922 535.98 458.662 535.927 458.323 535.856C457.643 535.715 456.645 535.506 455.366 535.229C452.808 534.676 449.123 533.854 444.609 532.78C435.583 530.631 423.228 527.469 409.92 523.414C396.617 519.36 382.325 514.404 369.438 508.66C356.591 502.934 344.965 496.352 337.13 488.985C305.879 459.699 312.443 409.77 350.539 394.133C369.386 386.397 385.158 389.377 396.189 394.325C401.684 396.789 405.995 399.736 408.938 402.07C409.299 402.357 409.639 402.634 409.959 402.9C410.021 402.486 410.091 402.05 410.17 401.593C410.81 397.888 412.064 392.813 414.522 387.312C419.457 376.268 429.239 363.54 448.452 356.79L448.453 356.789ZM410.104 409.356L410.099 409.351L410.06 409.309C410.022 409.269 409.961 409.206 409.878 409.121C409.712 408.951 409.457 408.695 409.114 408.37C408.428 407.719 407.397 406.792 406.043 405.718C403.333 403.568 399.351 400.846 394.283 398.574C384.189 394.046 369.761 391.276 352.307 398.441C317.804 412.603 311.167 458.273 340.315 485.588L340.318 485.59C347.583 492.422 358.645 498.752 371.334 504.407C383.984 510.044 398.079 514.938 411.277 518.959C424.469 522.979 436.726 526.117 445.687 528.25C450.167 529.316 453.82 530.13 456.351 530.678C457.368 530.898 458.204 531.075 458.84 531.207C459.226 530.685 459.732 529.995 460.346 529.152C461.87 527.057 464.055 524.014 466.69 520.234C471.96 512.67 479.022 502.161 486.197 490.376C493.375 478.585 500.645 465.548 506.343 452.925C512.059 440.264 516.114 428.19 517.004 418.279C520.575 378.42 485.27 348.824 449.995 361.183C432.208 367.433 423.29 379.105 418.774 389.211C416.507 394.285 415.349 398.973 414.758 402.386C414.463 404.091 414.311 405.472 414.233 406.415C414.194 406.887 414.174 407.248 414.163 407.486C414.158 407.605 414.155 407.693 414.153 407.748L414.152 407.805L414.152 407.813L414.152 407.814L414.152 407.816L414.086 413.718L410.106 409.359L410.105 409.358L410.104 409.356ZM459.823 533.787L459.369 536.07L460.803 536.356L461.683 535.187L459.823 533.787Z" fill="black"/>
      <path id="Vector_9" d="M 616.34 366.395 C 653.34 379.395 653.74 415.195 653.74 415.195 C 653.74 415.195 677.84 388.795 714.14 403.695 C 750.44 418.595 757.04 466.395 726.84 494.695 C 696.64 523.095 605.74 541.195 605.74 541.195 C 605.74 541.195 549.94 467.095 546.24 425.895 C 542.64 384.595 579.24 353.395 616.34 366.395 Z" fill="#FF2925"/>
      <path id="Vector (Stroke)_17" fill-rule="evenodd" clip-rule="evenodd" d="M621.651 361.183C586.384 348.827 551.169 378.413 554.643 418.281C555.533 428.192 559.588 440.265 565.303 452.925C571.002 465.548 578.272 478.585 585.45 490.376C592.624 502.162 599.687 512.67 604.957 520.234C607.592 524.014 609.776 527.057 611.301 529.152C611.915 529.995 612.421 530.685 612.807 531.207C613.442 531.075 614.278 530.898 615.296 530.678C617.827 530.13 621.48 529.316 625.959 528.25C634.921 526.117 647.178 522.979 660.37 518.959C673.567 514.938 687.663 510.045 700.313 504.407C713.002 498.752 724.063 492.422 731.328 485.59L731.331 485.588C760.479 458.273 753.843 412.603 719.339 398.441C701.886 391.277 687.458 394.046 677.364 398.574C672.296 400.847 668.314 403.569 665.603 405.719C664.25 406.792 663.218 407.719 662.533 408.37C662.19 408.695 661.934 408.951 661.768 409.121C661.685 409.206 661.625 409.269 661.587 409.309L661.548 409.351L661.543 409.356L661.542 409.358L661.541 409.359L657.561 413.718L657.495 407.816L657.495 407.815L657.495 407.813L657.495 407.806L657.494 407.748C657.492 407.693 657.489 407.605 657.484 407.486C657.473 407.248 657.453 406.887 657.413 406.415C657.335 405.472 657.183 404.091 656.888 402.387C656.298 398.973 655.139 394.285 652.872 389.211C648.357 379.105 639.439 367.433 621.651 361.183ZM661.687 402.9C661.626 402.486 661.556 402.05 661.477 401.593C660.836 397.888 659.582 392.813 657.124 387.312C652.19 376.268 642.408 363.54 623.195 356.79L623.193 356.789C584.263 343.148 546.279 375.96 550.004 418.689L550.004 418.695C550.964 429.384 555.272 442.022 561.059 454.841C566.864 467.7 574.238 480.914 581.472 492.797C588.71 504.687 595.828 515.278 601.136 522.896C603.791 526.706 605.995 529.774 607.536 531.892C608.306 532.951 608.912 533.773 609.325 534.331C609.532 534.61 609.69 534.823 609.798 534.966L609.92 535.13L609.96 535.183L609.962 535.186C609.963 535.187 609.963 535.187 611.823 533.787L609.963 535.187L610.843 536.356L612.278 536.07L611.823 533.787C612.278 536.07 612.279 536.07 612.28 536.07L612.348 536.056L612.548 536.016C612.724 535.98 612.984 535.927 613.324 535.856C614.003 535.716 615.001 535.506 616.28 535.229C618.839 534.676 622.523 533.854 627.037 532.78C636.064 530.632 648.419 527.469 661.727 523.414C675.029 519.361 689.321 514.404 702.209 508.66C715.056 502.934 726.682 496.352 734.517 488.984C765.767 459.698 759.203 409.77 721.108 394.133C702.261 386.397 686.489 389.377 675.458 394.325C669.963 396.789 665.652 399.736 662.709 402.07C662.348 402.357 662.007 402.634 661.687 402.9Z" fill="black"/>
      <g id="Group_9">
        <path id="Vector_10" d="M539.323 632.987C555.229 632.987 568.123 608.497 568.123 578.287C568.123 548.077 555.229 523.587 539.323 523.587C523.418 523.587 510.523 548.077 510.523 578.287C510.523 608.497 523.418 632.987 539.323 632.987Z" fill="white"/>
        <path id="Vector (Stroke)_18" fill-rule="evenodd" clip-rule="evenodd" d="M521.297 540.839C516.323 550.287 513.166 563.523 513.166 578.287C513.166 593.051 516.323 606.286 521.297 615.734C526.336 625.304 532.839 630.344 539.323 630.344C545.807 630.344 552.311 625.304 557.35 615.734C562.324 606.286 565.481 593.051 565.481 578.287C565.481 563.523 562.324 550.287 557.35 540.839C552.311 531.269 545.807 526.229 539.323 526.229C532.839 526.229 526.336 531.269 521.297 540.839ZM516.62 538.377C522.005 528.149 529.902 520.944 539.323 520.944C548.745 520.944 556.642 528.149 562.026 538.377C567.475 548.726 570.766 562.841 570.766 578.287C570.766 593.733 567.475 607.847 562.026 618.197C556.642 628.424 548.745 635.629 539.323 635.629C529.902 635.629 522.005 628.424 516.62 618.197C511.171 607.847 507.881 593.733 507.881 578.287C507.881 562.841 511.171 548.726 516.62 538.377Z" fill="black"/>
        <path id="Vector_11" d="M540.023 632.887C551.511 632.887 560.823 621.157 560.823 606.687C560.823 592.217 551.511 580.487 540.023 580.487C528.536 580.487 519.223 592.217 519.223 606.687C519.223 621.157 528.536 632.887 540.023 632.887Z" fill="#FF2925"/>
        <path id="Vector (Stroke)_19" fill-rule="evenodd" clip-rule="evenodd" d="M540.023 583.422C530.753 583.422 522.159 593.17 522.159 606.687C522.159 620.204 530.753 629.952 540.023 629.952C549.294 629.952 557.888 620.204 557.888 606.687C557.888 593.17 549.294 583.422 540.023 583.422ZM516.288 606.687C516.288 591.264 526.319 577.552 540.023 577.552C553.728 577.552 563.759 591.264 563.759 606.687C563.759 622.11 553.728 635.822 540.023 635.822C526.319 635.822 516.288 622.11 516.288 606.687Z" fill="black"/>
      </g>
    </g>
    <path id="Vector 4 (Stroke)" fill-rule="evenodd" clip-rule="evenodd" d="M693.779 720.329C691.828 715.013 691.213 707.437 696.182 698.284L698.818 699.716C694.287 708.063 694.922 714.737 696.596 719.296C697.441 721.6 698.565 723.394 699.474 724.609C699.928 725.215 700.326 725.674 700.605 725.975C700.744 726.126 700.853 726.237 700.924 726.307C700.959 726.342 700.985 726.367 701 726.382L701.015 726.395L701.016 726.396L701.017 726.397L702.424 727.687L700.605 729.5C697.809 732.5 696.817 736 697.651 740.183C698.668 745.284 701.808 750.83 706.747 754.764C711.653 758.671 718.342 760.996 726.555 759.698C734.801 758.395 744.719 753.413 755.951 742.428L758.049 744.572C746.531 755.837 736.074 761.231 727.023 762.661C717.939 764.097 710.409 761.516 704.878 757.111C699.38 752.732 695.863 746.56 694.709 740.77C693.693 735.676 694.469 730.516 697.809 727.337C697.584 727.068 697.335 726.758 697.073 726.407C696.029 725.012 694.746 722.963 693.779 720.329Z" fill="black"/>
  </g>
</svg>