<svg viewBox="0 0 1079.9999999999998 1079.9999999999998" fill="none" xmlns="http://www.w3.org/2000/svg" xmlns:xlink="http://www.w3.org/1999/xlink" overflow="visible" width="1079.9999999999998px" height="1079.9999999999998px"><g id="Master/Brandon Mendoza/Pointing"><g id="Group 5"><path id="Vector" d="M900.66 1080H179.34C80.45 1080 0 999.54 0 900.66V179.33C0 80.4501 80.45 0 179.34 0H900.66C999.55 0 1080 80.4501 1080 179.33V900.66C1080 999.54 999.55 1080 900.66 1080ZM179.34 56.8403C146.863 56.8747 115.726 69.7903 92.7609 92.7539C69.7955 115.717 56.8771 146.853 56.84 179.33V900.66C56.8771 933.137 69.7955 964.273 92.7609 987.236C115.726 1010.2 146.863 1023.12 179.34 1023.15H900.66C933.137 1023.12 964.274 1010.2 987.239 987.236C1010.2 964.273 1023.12 933.137 1023.16 900.66V179.33C1023.12 146.853 1010.2 115.717 987.239 92.7539C964.274 69.7903 933.137 56.8747 900.66 56.8403H179.34Z" fill="white"/><path id="Vector_2" d="M881.27 28.4203H198.73C104.67 28.4203 28.4199 104.671 28.4199 198.73V881.27C28.4199 975.33 104.67 1051.58 198.73 1051.58H881.27C975.33 1051.58 1051.58 975.33 1051.58 881.27V198.73C1051.58 104.671 975.33 28.4203 881.27 28.4203Z" fill="#035FFE"/><path id="Vector_3" d="M797.75 1002.6L409.64 959.8L572.3 928.41L472.27 882.75L603.7 891.31L513.51 709.2L777.77 857.06L926.17 663.01L869.09 857.06L1022.68 810.14L914.75 919.85L1015.26 929.24L797.75 1002.6Z" fill="#4803FE"/><path id="Vector_4" d="M101.05 648.1L219.87 750.38L316.45 683.08L506.19 633.58L551.82 479.33C541.33 567.45 612.1 808.45 612.1 808.45L683.1 965.23L845.83 954.64C845.83 954.64 714.59 674.64 692.45 516.93C659.74 283.99 629.98 176.08 633.34 143.72C633.34 143.72 163.73 136.28 38.19 134.29C31.6813 152.079 28.3604 170.878 28.38 189.82V542.55L111.11 589.25L101.05 648.1Z" fill="#000002"/><path id="Vector_5" d="M682.84 965.68L682.71 965.38L611.71 808.6C610.99 806.17 543.57 575.21 550.89 484.26L506.61 633.97L316.69 683.52L219.88 750.98L100.58 648.29L110.66 589.5L27.9904 542.83V189.77C27.9637 170.772 31.295 151.919 37.8304 134.08L37.9404 133.76L45.2704 133.88L560.52 142.04L628.31 143.11C633.9 143.2 633.9 143.2 633.9 143.67C632.26 159.42 638.59 193.67 649.09 250.48C660.54 312.48 676.23 397.4 693 516.82C714.88 672.68 845 951.59 846.34 954.38L846.63 955.01H845.94L682.84 965.68ZM551.36 479.19L552.29 479.38C541.93 566.38 611.85 805.86 612.56 808.27L683.44 964.69L845.15 954.16C838.15 939.16 713.42 669.35 692.02 516.95C675.26 397.56 659.57 312.65 648.11 250.65C637.72 194.39 631.4 160.2 632.86 144.13L45.2504 134.82L38.5904 134.72C32.1802 152.348 28.9106 170.963 28.9304 189.72V542.23L111.7 588.96L101.6 647.87L219.93 749.73L316.27 682.59H316.36L505.84 633.16L551.36 479.19Z" fill="#000002"/><path id="Vector (Stroke)" fill-rule="evenodd" clip-rule="evenodd" d="M683.344 501.1L723.621 532.712L716.054 545.222L683.21 599.43L683.344 501.1ZM684.291 503.051L684.165 596.021L715.241 544.73L722.373 532.94L684.291 503.051Z" fill="#000002"/><path id="Vector_6" d="M129.47 638.63L248.25 740.91L344.83 673.61L534.57 624.1L580.25 469.85C569.76 557.92 640.53 798.93 640.53 798.93L711.53 955.71L874.25 945.11C874.25 945.11 743.05 665.15 720.91 507.45C688.25 274.45 658.44 166.55 661.81 134.2C661.81 134.2 106.91 125.4 42.23 124.38C33.0982 144.969 28.3933 167.247 28.42 189.77V517.04L139.57 579.78L129.47 638.63Z" fill="#FFCF06"/><path id="Vector_7" d="M576.32 497.82C576.029 497.818 575.739 497.801 575.45 497.77C573.581 497.54 571.88 496.578 570.719 495.095C569.559 493.612 569.034 491.73 569.26 489.86L592.19 300.76C592.21 300.575 592.24 300.391 592.28 300.21L619.33 166.28L553.89 164.28C552.008 164.223 550.225 163.421 548.933 162.05C547.641 160.68 546.946 158.853 547 156.97C547.026 156.036 547.236 155.117 547.618 154.265C548.001 153.412 548.548 152.644 549.228 152.003C549.908 151.363 550.708 150.864 551.582 150.534C552.456 150.204 553.386 150.049 554.32 150.08L628.18 152.3C629.213 152.334 630.227 152.592 631.151 153.056C632.075 153.521 632.887 154.181 633.53 154.99C634.174 155.799 634.632 156.74 634.874 157.745C635.116 158.75 635.135 159.796 634.93 160.81L606.25 302.75L583.35 491.57C583.143 493.29 582.313 494.875 581.018 496.026C579.724 497.177 578.053 497.816 576.32 497.82V497.82Z" fill="#FF4F03"/><path id="Vector_8" d="M441.59 655.45C441.225 655.448 440.861 655.422 440.5 655.37C438.638 655.08 436.968 654.063 435.854 652.543C434.741 651.023 434.276 649.123 434.56 647.261L470.03 418.261C470.03 418.161 470.03 418.07 470.08 417.98L497.86 276.98L458.41 269.72C456.557 269.38 454.914 268.318 453.844 266.767C452.773 265.217 452.362 263.304 452.7 261.45C452.869 260.532 453.217 259.656 453.724 258.872C454.232 258.088 454.889 257.413 455.658 256.883C456.427 256.354 457.293 255.981 458.206 255.786C459.119 255.592 460.062 255.58 460.98 255.75L507.51 264.31C508.434 264.483 509.314 264.837 510.101 265.352C510.887 265.867 511.563 266.532 512.09 267.31C512.62 268.088 512.99 268.963 513.179 269.885C513.368 270.807 513.372 271.757 513.19 272.68L484.05 420.68L448.61 649.45C448.344 651.122 447.491 652.643 446.205 653.743C444.918 654.842 443.282 655.448 441.59 655.45Z" fill="#FF4F03"/><path id="Vector_9" d="M349.41 672.571C349.075 672.567 348.741 672.541 348.41 672.49C346.547 672.218 344.868 671.217 343.743 669.708C342.618 668.198 342.139 666.304 342.41 664.441L366.65 497.171C366.65 496.931 366.73 496.69 366.79 496.46L388.37 410.27L359.85 403.54C358.017 403.106 356.431 401.961 355.441 400.358C354.451 398.755 354.138 396.824 354.57 394.99C354.783 394.082 355.173 393.225 355.718 392.468C356.263 391.711 356.951 391.069 357.745 390.578C358.538 390.088 359.42 389.759 360.341 389.61C361.262 389.461 362.203 389.495 363.11 389.71L398.64 398.1C399.558 398.314 400.423 398.709 401.185 399.262C401.948 399.815 402.592 400.515 403.08 401.321C403.569 402.125 403.894 403.018 404.034 403.948C404.175 404.878 404.13 405.828 403.9 406.74L380.66 499.56L356.44 666.45C356.202 668.146 355.359 669.699 354.068 670.823C352.776 671.947 351.123 672.568 349.41 672.571V672.571Z" fill="#FF4F03"/><path id="Vector_10" d="M203.73 627.02C201.64 627.019 199.634 626.201 198.14 624.74C196.635 623.256 195.779 621.237 195.758 619.123C195.738 617.009 196.554 614.973 198.03 613.46L249.85 560.64C251.334 559.135 253.353 558.279 255.467 558.259C257.581 558.238 259.616 559.055 261.13 560.53C262.634 562.015 263.491 564.034 263.511 566.147C263.532 568.261 262.715 570.297 261.24 571.81L209.42 624.63C208.677 625.386 207.791 625.986 206.814 626.396C205.838 626.806 204.789 627.018 203.73 627.02Z" fill="#FF4F03"/><path id="Vector_11" d="M228.86 641.54C227.554 641.539 226.273 641.175 225.16 640.49L135.86 585.84C135.064 585.354 134.371 584.715 133.822 583.96C133.273 583.205 132.878 582.35 132.66 581.442C132.441 580.535 132.404 579.593 132.55 578.671C132.696 577.75 133.022 576.866 133.51 576.07C134.495 574.464 136.077 573.314 137.909 572.874C139.741 572.433 141.673 572.737 143.28 573.72L232.58 628.37C234.187 629.355 235.336 630.937 235.777 632.769C236.218 634.601 235.913 636.533 234.93 638.14C234.295 639.179 233.403 640.038 232.34 640.633C231.277 641.229 230.079 641.541 228.86 641.54V641.54Z" fill="#FF4F03"/><path id="Vector_12" d="M711.76 491.63L750.95 522.38L743.59 534.52L711.63 587.28L711.76 491.63Z" fill="#FFCF06"/><path id="Vector_13" d="M874.29 945.12L809.49 831.04L722.33 828.03L754.4 954.03L874.29 945.12Z" fill="white"/><path id="Vector_14" d="M708.98 588.131C708.031 588.129 707.093 587.939 706.22 587.57L637.09 558.51C635.944 558.027 634.946 557.251 634.193 556.262C633.44 555.272 632.96 554.103 632.8 552.87C632.642 551.636 632.81 550.382 633.287 549.233C633.765 548.084 634.534 547.08 635.52 546.32L709.25 489.79C709.991 489.216 710.838 488.794 711.743 488.549C712.648 488.303 713.593 488.24 714.523 488.361C715.452 488.483 716.349 488.788 717.16 489.258C717.971 489.728 718.682 490.354 719.25 491.1C719.822 491.842 720.242 492.69 720.485 493.595C720.729 494.5 720.792 495.443 720.67 496.372C720.549 497.301 720.245 498.197 719.776 499.008C719.308 499.82 718.683 500.531 717.94 501.1L653.94 550.18L711.73 574.45C712.59 574.812 713.372 575.34 714.028 576.004C714.685 576.667 715.205 577.454 715.558 578.319C715.911 579.183 716.09 580.108 716.085 581.042C716.08 581.976 715.891 582.9 715.53 583.76C714.99 585.053 714.08 586.157 712.915 586.935C711.749 587.712 710.38 588.128 708.98 588.131V588.131Z" fill="#FF4F03"/><path id="Vector_15" d="M900.66 0H179.34C80.45 0 0 80.4501 0 179.33V900.66C0 999.54 80.45 1080 179.34 1080H900.66C999.55 1080 1080 999.54 1080 900.66V179.33C1080 80.4501 999.55 0 900.66 0ZM1051.58 890.22C1051.58 933.009 1034.58 974.046 1004.33 1004.3C974.074 1034.56 933.039 1051.57 890.25 1051.57H189.77C146.977 1051.57 105.937 1034.57 75.6783 1004.31C45.4193 974.053 28.42 933.013 28.42 890.22V189.77C28.4279 146.983 45.4308 105.95 75.6889 75.6978C105.947 45.4452 146.983 28.4502 189.77 28.4502H890.25C911.439 28.4502 932.42 32.6238 951.996 40.7324C971.572 48.841 989.359 60.7258 1004.34 75.7085C1019.32 90.6912 1031.21 108.478 1039.32 128.054C1047.43 147.63 1051.6 168.612 1051.6 189.8L1051.58 890.22Z" fill="white"/></g></g></svg>