<svg width="125" height="39" viewBox="0 0 125 39" fill="none" xmlns="http://www.w3.org/2000/svg">
<path d="M2.90102 28.552C1.97169 28.552 1.25585 28.1596 0.753511 27.375C0.25117 26.5903 0 25.4386 0 23.9199C0 22.4771 0.200936 21.0343 0.602809 19.5915C1.00468 18.1234 1.55726 16.7313 2.26053 15.415C2.96381 14.0988 3.755 12.9344 4.63409 11.922C5.53831 10.9095 6.4802 10.1122 7.45976 9.52998C8.46444 8.92249 9.45657 8.61875 10.4361 8.61875C11.1143 8.61875 11.7045 8.79593 12.2069 9.1503C12.5585 9.37811 12.772 9.30217 12.8474 8.92249L14.053 3.91071C14.1786 3.45509 14.1786 3.13869 14.053 2.96151C13.9525 2.78432 13.7265 2.68307 13.3748 2.65776L12.2446 2.54386C11.8678 2.51855 11.7045 2.35402 11.7548 2.05027C11.805 1.82247 11.9808 1.68325 12.2822 1.63263C13.1864 1.48075 13.9902 1.30357 14.6935 1.10107C15.3967 0.873264 15.9619 0.582176 16.3889 0.227808C16.5898 0.0759359 16.7782 0 16.954 0C17.2554 0 17.3684 0.18984 17.2931 0.56952L11.9432 23.9199C11.5664 25.5651 11.8176 26.3878 12.6967 26.3878C13.2744 26.3878 13.7893 25.9955 14.2414 25.2108C14.7186 24.4261 15.1958 23.2111 15.673 21.5658C15.7484 21.2874 15.9116 21.1482 16.1628 21.1482C16.3386 21.1482 16.4517 21.2241 16.5019 21.376C16.5521 21.5279 16.5521 21.7051 16.5019 21.9076C16.0247 24.2869 15.3591 25.9955 14.5051 27.0332C13.6762 28.0457 12.6967 28.552 11.5664 28.552C10.5868 28.552 9.88356 28.1343 9.45657 27.299C9.05469 26.4637 9.01702 25.3247 9.34354 23.8819L9.75797 22.1354C9.8082 21.9582 9.77053 21.8569 9.64494 21.8316C9.54448 21.8063 9.45657 21.8696 9.38122 22.0215C8.1756 24.4008 7.03277 26.084 5.95274 27.0712C4.87271 28.0584 3.85547 28.552 2.90102 28.552ZM3.80523 26.6156C4.40804 26.6156 5.07364 26.2486 5.80204 25.5145C6.53043 24.7805 7.24627 23.8313 7.94954 22.6669C8.67794 21.5026 9.34354 20.2496 9.94635 18.9081C10.5492 17.5665 11.0264 16.2756 11.378 15.0353C11.7548 13.7951 11.9432 12.7446 11.9432 11.884C11.9432 10.34 11.4031 9.56795 10.3231 9.56795C9.67006 9.56795 8.97934 9.87169 8.25095 10.4792C7.52255 11.0614 6.81928 11.8587 6.14112 12.8712C5.48807 13.8836 4.88526 15.0353 4.33269 16.3263C3.80523 17.5919 3.37824 18.9207 3.05172 20.3129C2.7252 21.6798 2.56194 23.0213 2.56194 24.3375C2.56194 25.2234 2.67496 25.8309 2.90102 26.16C3.15219 26.4637 3.45359 26.6156 3.80523 26.6156Z" fill="#06243A"/>
<path d="M22.7799 5.23959C22.3027 5.23959 21.9008 5.07506 21.5743 4.74601C21.2729 4.39164 21.1222 3.97399 21.1222 3.49306C21.1222 2.80964 21.3231 2.26543 21.725 1.86043C22.152 1.45544 22.6292 1.25295 23.1566 1.25295C23.659 1.25295 24.0734 1.41747 24.3999 1.74653C24.7516 2.05027 24.9274 2.45527 24.9274 2.96151C24.9274 3.67024 24.7139 4.22711 24.2869 4.6321C23.8599 5.03709 23.3576 5.23959 22.7799 5.23959ZM19.6905 28.5899C18.8616 28.5899 18.2714 28.2862 17.9197 27.6787C17.5681 27.0459 17.5555 26.0208 17.8821 24.6033L20.67 12.5674C20.7956 12.0106 20.8082 11.5803 20.7077 11.2765C20.6324 10.9475 20.4063 10.7829 20.0296 10.7829C19.5775 10.7829 19.0751 11.1246 18.5225 11.8081C17.9951 12.4662 17.3923 13.7318 16.7141 15.6049C16.6136 15.9339 16.4378 16.0985 16.1867 16.0985C15.8099 16.0985 15.7094 15.8706 15.8853 15.415C16.4378 13.6685 17.0155 12.3016 17.6183 11.3145C18.2463 10.3273 18.8742 9.63123 19.5021 9.22623C20.13 8.82124 20.7077 8.61875 21.2352 8.61875C22.1143 8.61875 22.7296 8.93515 23.0813 9.56795C23.4329 10.1754 23.4455 11.1879 23.119 12.6054L20.331 24.6413C20.2054 25.1981 20.1803 25.6411 20.2556 25.9701C20.3561 26.2739 20.5947 26.4258 20.9715 26.4258C21.4236 26.4258 21.9133 26.0967 22.4408 25.4386C22.9934 24.7552 23.6087 23.4769 24.2869 21.6038C24.3874 21.2748 24.5632 21.1102 24.8144 21.1102C25.1911 21.1102 25.2916 21.338 25.1158 21.7937C24.5883 23.5149 23.9981 24.8817 23.345 25.8942C22.7171 26.8814 22.0892 27.5775 21.4612 27.9824C20.8333 28.3874 20.2431 28.5899 19.6905 28.5899Z" fill="#06243A"/>
<path d="M28.0577 28.552C27.2288 28.552 26.3497 28.4254 25.4204 28.1723C24.5162 27.9192 23.8255 27.6028 23.3483 27.2231C23.1724 27.0712 23.0971 26.8434 23.1222 26.5397L23.9511 21.5658C24.0013 21.2368 24.152 21.0723 24.4032 21.0723C24.6795 21.0723 24.8176 21.2494 24.8176 21.6038L24.8929 23.4263C24.9432 24.8691 25.2823 25.9322 25.9102 26.6156C26.5632 27.2737 27.3544 27.6028 28.2838 27.6028C29.0875 27.6028 29.7782 27.3496 30.3559 26.8434C30.9336 26.3119 31.2224 25.5398 31.2224 24.5274C31.2224 23.9452 31.1345 23.4136 30.9587 22.9327C30.7829 22.4265 30.5066 21.8949 30.1299 21.338C29.7531 20.7559 29.2382 20.0598 28.5852 19.2498C27.7312 18.1361 27.0907 17.1869 26.6637 16.4022C26.2618 15.5922 26.0609 14.7569 26.0609 13.8963C26.0609 12.3016 26.5507 11.0234 27.5302 10.0615C28.5349 9.09967 29.8033 8.61875 31.3355 8.61875C32.0136 8.61875 32.6667 8.71999 33.2946 8.92249C33.9476 9.12499 34.4877 9.42873 34.9146 9.83372C35.1407 10.0109 35.2161 10.2387 35.1407 10.5171L34.0858 15.6049C34.0104 15.9339 33.8597 16.0985 33.6337 16.0985C33.4076 16.0985 33.2695 15.9213 33.2192 15.5669L33.1062 13.7444C33.0058 12.2257 32.8048 11.1373 32.5034 10.4792C32.2271 9.82107 31.6369 9.49201 30.7327 9.49201C29.9289 9.49201 29.2759 9.77044 28.7735 10.3273C28.2712 10.8842 28.02 11.5549 28.02 12.3396C28.02 13.1749 28.2461 13.9469 28.6982 14.6557C29.1503 15.3391 29.7657 16.2124 30.5443 17.2755C31.5741 18.6423 32.2648 19.7307 32.6164 20.5407C32.9932 21.3507 33.1816 22.1733 33.1816 23.0086C33.1816 24.0717 32.943 25.0209 32.4657 25.8562C32.0136 26.6915 31.3983 27.3496 30.6196 27.8306C29.841 28.3115 28.987 28.552 28.0577 28.552Z" fill="#06243A"/>
<path d="M38.1456 28.552C36.7642 28.552 35.6214 27.9824 34.7171 26.8434C33.8129 25.6791 33.3608 24.1983 33.3608 22.4011C33.3608 20.7052 33.6246 19.0473 34.152 17.4273C34.7046 15.782 35.433 14.3013 36.3372 12.9851C37.2665 11.6435 38.2838 10.5804 39.3889 9.79576C40.5192 9.01108 41.6494 8.61875 42.7797 8.61875C43.9853 8.61875 45.0026 8.9478 45.8314 9.60592C45.957 9.70716 46.0324 9.79575 46.0575 9.87169C46.0826 9.92231 46.07 10.0489 46.0198 10.2514L45.0026 15.2252C44.9272 15.5796 44.764 15.7567 44.5128 15.7567C44.2365 15.7567 44.0732 15.5669 44.023 15.1872L43.8346 12.4915C43.7593 11.3271 43.5835 10.5678 43.3072 10.2134C43.056 9.85903 42.6792 9.68185 42.1769 9.68185C41.4736 9.68185 40.7578 10.0362 40.0294 10.745C39.301 11.4284 38.6228 12.3649 37.9949 13.5546C37.3921 14.7189 36.9023 16.0225 36.5256 17.4653C36.1739 18.8828 35.9981 20.3256 35.9981 21.7937C35.9981 24.983 37.0279 26.5776 39.0875 26.5776C40.0671 26.5776 40.9462 26.122 41.7248 25.2108C42.5285 24.2995 43.2695 22.8821 43.9477 20.9584C44.023 20.7052 44.1988 20.5787 44.4751 20.5787C44.6258 20.5787 44.7137 20.642 44.7388 20.7685C44.764 20.8698 44.7388 21.0849 44.6635 21.414C44.4123 22.8061 43.9602 24.0338 43.3072 25.0969C42.6541 26.16 41.8755 27.0079 40.9713 27.6407C40.0922 28.2482 39.1503 28.552 38.1456 28.552Z" fill="#06243A"/>
<path d="M49.5457 28.552C47.9885 28.552 46.7577 27.9065 45.8535 26.6156C44.9493 25.2994 44.4972 23.5275 44.4972 21.3001C44.4972 19.6548 44.7609 18.0728 45.2884 16.5541C45.8158 15.0353 46.5066 13.6812 47.3605 12.4915C48.2396 11.3018 49.2066 10.3653 50.2616 9.68185C51.3416 8.97311 52.4216 8.61875 53.5017 8.61875C55.0589 8.61875 56.2896 9.2642 57.1939 10.5551C58.0981 11.846 58.5502 13.6179 58.5502 15.8706C58.5502 17.5159 58.2864 19.0979 57.759 20.6166C57.2315 22.1354 56.5283 23.4896 55.6492 24.6792C54.7952 25.8689 53.8282 26.8181 52.7481 27.5268C51.6932 28.2103 50.6257 28.552 49.5457 28.552ZM49.4704 27.6407C50.2741 27.6407 51.0527 27.2484 51.8062 26.4637C52.5849 25.6791 53.2882 24.6413 53.9161 23.3503C54.544 22.0594 55.0463 20.6293 55.4231 19.06C55.7999 17.4653 55.9882 15.8706 55.9882 14.276C55.9882 11.112 55.1719 9.52998 53.5393 9.52998C52.7607 9.52998 51.9821 9.92232 51.2034 10.707C50.4248 11.4663 49.7215 12.4915 49.0936 13.7824C48.4908 15.0733 48.001 16.5161 47.6243 18.1108C47.2475 19.6801 47.0591 21.2621 47.0591 22.8568C47.0591 26.0461 47.8629 27.6407 49.4704 27.6407Z" fill="#06243A"/>
<path d="M62.7722 28.552C61.5415 28.552 60.6247 28.0837 60.0219 27.1472C59.4191 26.2106 59.306 25.0083 59.6828 23.5402L62.5838 12.5674C62.9103 11.3778 62.7094 10.7829 61.981 10.7829C61.4535 10.7829 60.9261 11.1626 60.3986 11.922C59.8963 12.6813 59.3437 13.9216 58.7409 15.6428C58.6404 15.9466 58.4646 16.0985 58.2134 16.0985C58.0879 16.0985 57.9874 16.0478 57.912 15.9466C57.8367 15.82 57.8241 15.6681 57.8744 15.491C59.3312 10.9095 61.1521 8.61875 63.3373 8.61875C64.1913 8.61875 64.769 8.97311 65.0704 9.68185C65.3718 10.3906 65.3592 11.3651 65.0327 12.6054L62.0564 23.9199C61.7801 24.983 61.755 25.8056 61.981 26.3878C62.2322 26.9447 62.6717 27.2231 63.2997 27.2231C64.028 27.2231 64.7941 26.8687 65.5979 26.16C66.4267 25.4512 67.2054 24.5274 67.9337 23.3883C68.6621 22.2493 69.2524 20.9963 69.7045 19.6295C70.1566 18.2626 70.3827 16.9211 70.3827 15.6049C70.3827 14.5418 70.2696 13.7065 70.0436 13.099C69.8175 12.4662 69.5789 11.9346 69.3277 11.5043C69.1017 11.074 68.9887 10.6057 68.9887 10.0995C68.9887 9.11233 69.4157 8.61875 70.2696 8.61875C71.4752 8.61875 72.0781 9.96028 72.0781 12.6434C72.0781 14.5671 71.8018 16.4781 71.2492 18.3765C70.6966 20.2496 69.9682 21.9582 69.064 23.5022C68.1598 25.0209 67.1551 26.2486 66.05 27.1851C64.9699 28.0964 63.8773 28.552 62.7722 28.552Z" fill="#06243A"/>
<path d="M75.2092 28.552C73.878 28.552 72.8106 28.0331 72.0068 26.9953C71.2031 25.9322 70.8012 24.4388 70.8012 22.5151C70.8012 20.8445 71.0901 19.1865 71.6677 17.5412C72.2706 15.896 73.0492 14.4025 74.0036 13.061C74.9581 11.7195 76.0004 10.6437 77.1307 9.83372C78.2861 9.02374 79.4038 8.61875 80.4838 8.61875C81.6643 8.61875 82.5058 8.90983 83.0081 9.49201C83.5355 10.0489 83.7993 10.8082 83.7993 11.7701C83.7993 12.9091 83.3974 14.0482 82.5937 15.1872C81.815 16.3009 80.7099 17.3008 79.2782 18.1867C77.8717 19.0726 76.2139 19.7307 74.305 20.161C73.7525 20.2876 73.4636 20.604 73.4385 21.1102C73.4134 21.2874 73.4008 21.4773 73.4008 21.6798C73.4008 21.8569 73.4008 22.0341 73.4008 22.2113C73.4008 23.6541 73.6394 24.7425 74.1167 25.4766C74.619 26.2106 75.2972 26.5776 76.1511 26.5776C77.1056 26.5776 78.0224 26.1347 78.9015 25.2487C79.8057 24.3628 80.5592 23.1099 81.162 21.4899C81.2373 21.2621 81.388 21.1482 81.6141 21.1482C81.7648 21.1482 81.8527 21.2115 81.8778 21.338C81.9281 21.4646 81.9281 21.6165 81.8778 21.7937C81.0741 24.0211 80.0945 25.7044 78.9391 26.8434C77.8089 27.9824 76.5656 28.552 75.2092 28.552ZM73.8153 18.7182C73.765 18.8954 73.7901 19.0473 73.8906 19.1739C74.0162 19.2751 74.1669 19.3004 74.3427 19.2498C75.9 18.8195 77.206 18.174 78.261 17.3134C79.3159 16.4275 80.1071 15.4403 80.6345 14.3519C81.1871 13.2635 81.4634 12.2004 81.4634 11.1626C81.4634 10.0995 81.049 9.56795 80.2201 9.56795C79.4917 9.56795 78.7005 9.99825 77.8465 10.8589C76.9926 11.7195 76.2014 12.8459 75.473 14.238C74.7446 15.6302 74.192 17.1236 73.8153 18.7182Z" fill="#06243A"/>
<path d="M83.5979 28.2103C83.2463 28.2103 83.1082 28.0457 83.1835 27.7167L86.7627 12.5674C86.8883 12.0106 86.9008 11.5803 86.8004 11.2765C86.725 10.9475 86.499 10.7829 86.1222 10.7829C85.6701 10.7829 85.1678 11.1246 84.6152 11.8081C84.0877 12.4662 83.4849 13.7318 82.8068 15.6049C82.7063 15.9339 82.5305 16.0985 82.2793 16.0985C81.9025 16.0985 81.8021 15.8706 81.9779 15.415C82.5305 13.6685 83.1082 12.3016 83.711 11.3145C84.3389 10.3273 84.9668 9.63123 85.5948 9.22623C86.2227 8.82124 86.8004 8.61875 87.3278 8.61875C88.1567 8.61875 88.7469 8.93515 89.0986 9.56795C89.4502 10.1754 89.4628 11.1879 89.1362 12.6054L88.7218 14.3899C88.6967 14.5671 88.7344 14.6683 88.8348 14.6936C88.9353 14.7189 89.0232 14.6557 89.0986 14.5038C90.053 12.3016 90.9196 10.7703 91.6982 9.90966C92.4768 9.04905 93.3685 8.61875 94.3732 8.61875C95.0513 8.61875 95.5537 8.80859 95.8802 9.18827C96.2318 9.54263 96.4076 10.0362 96.4076 10.669C96.4076 11.3018 96.2569 11.8081 95.9555 12.1877C95.6541 12.5674 95.2648 12.7573 94.7876 12.7573C94.3857 12.7573 94.0969 12.656 93.921 12.4535C93.7452 12.251 93.6071 12.0232 93.5066 11.7701C93.4313 11.4917 93.3434 11.2512 93.2429 11.0487C93.1424 10.8462 92.9792 10.745 92.7531 10.745C92.3763 10.745 91.8866 11.2259 91.2838 12.1877C90.681 13.1496 90.0279 14.4532 89.3246 16.0985C88.6465 17.7184 87.9809 19.5409 87.3278 21.5658C86.6999 23.5908 86.1473 25.6664 85.6701 27.7926C85.5947 28.071 85.4189 28.2103 85.1426 28.2103H83.5979Z" fill="#06243A"/>
<path d="M92.5156 36.3734C91.5611 36.3734 90.8202 36.1203 90.2927 35.614C89.7653 35.1331 89.5015 34.5383 89.5015 33.8295C89.5015 33.298 89.6397 32.893 89.916 32.6145C90.1922 32.3614 90.4937 32.2349 90.8202 32.2349C91.2974 32.2349 91.6365 32.3614 91.8374 32.6145C92.0383 32.8677 92.1891 33.1588 92.2895 33.4878C92.39 33.8422 92.5533 34.1459 92.7793 34.399C92.9802 34.6522 93.3193 34.7787 93.7965 34.7787C94.7259 34.7787 95.6426 34.399 96.5469 33.6397C97.4511 32.9056 98.192 31.8805 98.7697 30.5643C99.3474 29.2734 99.5986 27.8179 99.5232 26.198L98.9581 12.5674C98.933 11.9093 98.82 11.4537 98.619 11.2006C98.4181 10.9221 98.1669 10.7829 97.8655 10.7829C97.3129 10.7829 96.7855 11.1246 96.2831 11.8081C95.7808 12.4662 95.3664 13.7318 95.0398 15.6049C94.9645 15.9339 94.8012 16.0985 94.5501 16.0985C94.1984 16.0985 94.0603 15.8706 94.1356 15.415C94.437 13.6685 94.8515 12.3016 95.3789 11.3145C95.9315 10.3273 96.5092 9.63123 97.112 9.22623C97.7399 8.82124 98.3176 8.61875 98.8451 8.61875C99.6237 8.61875 100.239 8.89718 100.691 9.45404C101.143 9.9856 101.394 10.9095 101.445 12.2257L101.972 26.8054C101.972 26.9826 102.022 27.0965 102.123 27.1472C102.248 27.1725 102.361 27.1092 102.462 26.9573C103.341 25.717 104.132 24.4388 104.835 23.1225C105.564 21.781 106.142 20.4648 106.569 19.1739C106.996 17.8829 107.209 16.6933 107.209 15.6049C107.209 14.5418 107.096 13.7065 106.87 13.099C106.644 12.4662 106.405 11.9346 106.154 11.5043C105.928 11.074 105.815 10.6057 105.815 10.0995C105.815 9.11233 106.242 8.61875 107.096 8.61875C108.302 8.61875 108.904 9.96028 108.904 12.6434C108.904 14.1115 108.653 15.7188 108.151 17.4653C107.649 19.1865 106.958 20.9457 106.079 22.7429C105.225 24.5147 104.233 26.2106 103.102 27.8306C101.997 29.4505 100.829 30.906 99.5986 32.1969C98.393 33.4878 97.1748 34.5003 95.9441 35.2343C94.7384 35.9937 93.5956 36.3734 92.5156 36.3734Z" fill="#06243A"/>
<path d="M125 9.9678L124.522 13.9166H115.802L113.925 19.6637C114.355 19.5772 114.753 19.5154 115.121 19.4783C115.501 19.4289 115.851 19.4042 116.17 19.4042C118.758 19.4042 120.793 20.2261 122.277 21.8699C123.761 23.5137 124.503 25.7631 124.503 28.6181C124.503 31.7327 123.583 34.2416 121.744 36.145C119.904 38.0483 117.488 39 114.496 39C110.436 39 107.278 37.1955 105.022 33.5866L107.947 31.2136C109.026 32.6967 110.044 33.7349 111 34.3282C111.982 34.909 113.128 35.1995 114.441 35.1995C116.243 35.1995 117.691 34.5939 118.782 33.3827C119.861 32.1838 120.401 30.5524 120.401 28.4883C120.401 26.7086 119.886 25.3058 118.856 24.28C117.838 23.2418 116.446 22.7227 114.68 22.7227C112.901 22.7227 110.853 23.3901 108.535 24.7249L113.226 9.9678H125Z" fill="#06243A"/>
</svg>
